<?xml version="1.0" encoding="utf-8" standalone="no"?>
<!DOCTYPE svg PUBLIC "-//W3C//DTD SVG 1.1//EN"
  "http://www.w3.org/Graphics/SVG/1.1/DTD/svg11.dtd">
<svg xmlns:xlink="http://www.w3.org/1999/xlink" width="618.054062pt" height="288.545pt" viewBox="0 0 618.054062 288.545" xmlns="http://www.w3.org/2000/svg" version="1.1">
 <metadata>
  <rdf:RDF xmlns:dc="http://purl.org/dc/elements/1.1/" xmlns:cc="http://creativecommons.org/ns#" xmlns:rdf="http://www.w3.org/1999/02/22-rdf-syntax-ns#">
   <cc:Work>
    <dc:type rdf:resource="http://purl.org/dc/dcmitype/StillImage"/>
    <dc:date>2025-07-02T23:04:11.693036</dc:date>
    <dc:format>image/svg+xml</dc:format>
    <dc:creator>
     <cc:Agent>
      <dc:title>Matplotlib v3.10.3, https://matplotlib.org/</dc:title>
     </cc:Agent>
    </dc:creator>
   </cc:Work>
  </rdf:RDF>
 </metadata>
 <defs>
  <style type="text/css">*{stroke-linejoin: round; stroke-linecap: butt}</style>
 </defs>
 <g id="figure_1">
  <g id="patch_1">
   <path d="M 0 288.545 
L 618.054062 288.545 
L 618.054062 0 
L 0 0 
z
" style="fill: #ffffff"/>
  </g>
  <g id="axes_1">
   <g id="patch_2">
    <path d="M 52.854063 247.1175 
L 610.854063 247.1175 
L 610.854063 25.3575 
L 52.854063 25.3575 
z
" style="fill: #ffffff"/>
   </g>
   <g id="matplotlib.axis_1">
    <g id="xtick_1">
     <g id="line2d_1">
      <defs>
       <path id="m00a241eef9" d="M 0 0 
L 0 3.5 
" style="stroke: #000000; stroke-width: 0.8"/>
      </defs>
      <g>
       <use xlink:href="#m00a241eef9" x="78.217699" y="247.1175" style="stroke: #000000; stroke-width: 0.8"/>
      </g>
     </g>
     <g id="text_1">
      <!-- 0 -->
      <g transform="translate(75.036449 261.715937) scale(0.1 -0.1)">
       <defs>
        <path id="DejaVuSans-30" d="M 2034 4250 
Q 1547 4250 1301 3770 
Q 1056 3291 1056 2328 
Q 1056 1369 1301 889 
Q 1547 409 2034 409 
Q 2525 409 2770 889 
Q 3016 1369 3016 2328 
Q 3016 3291 2770 3770 
Q 2525 4250 2034 4250 
z
M 2034 4750 
Q 2819 4750 3233 4129 
Q 3647 3509 3647 2328 
Q 3647 1150 3233 529 
Q 2819 -91 2034 -91 
Q 1250 -91 836 529 
Q 422 1150 422 2328 
Q 422 3509 836 4129 
Q 1250 4750 2034 4750 
z
" transform="scale(0.015625)"/>
       </defs>
       <use xlink:href="#DejaVuSans-30"/>
      </g>
     </g>
    </g>
    <g id="xtick_2">
     <g id="line2d_2">
      <g>
       <use xlink:href="#m00a241eef9" x="150.686267" y="247.1175" style="stroke: #000000; stroke-width: 0.8"/>
      </g>
     </g>
     <g id="text_2">
      <!-- 100 -->
      <g transform="translate(141.142517 261.715937) scale(0.1 -0.1)">
       <defs>
        <path id="DejaVuSans-31" d="M 794 531 
L 1825 531 
L 1825 4091 
L 703 3866 
L 703 4441 
L 1819 4666 
L 2450 4666 
L 2450 531 
L 3481 531 
L 3481 0 
L 794 0 
L 794 531 
z
" transform="scale(0.015625)"/>
       </defs>
       <use xlink:href="#DejaVuSans-31"/>
       <use xlink:href="#DejaVuSans-30" transform="translate(63.623047 0)"/>
       <use xlink:href="#DejaVuSans-30" transform="translate(127.246094 0)"/>
      </g>
     </g>
    </g>
    <g id="xtick_3">
     <g id="line2d_3">
      <g>
       <use xlink:href="#m00a241eef9" x="223.154834" y="247.1175" style="stroke: #000000; stroke-width: 0.8"/>
      </g>
     </g>
     <g id="text_3">
      <!-- 200 -->
      <g transform="translate(213.611084 261.715937) scale(0.1 -0.1)">
       <defs>
        <path id="DejaVuSans-32" d="M 1228 531 
L 3431 531 
L 3431 0 
L 469 0 
L 469 531 
Q 828 903 1448 1529 
Q 2069 2156 2228 2338 
Q 2531 2678 2651 2914 
Q 2772 3150 2772 3378 
Q 2772 3750 2511 3984 
Q 2250 4219 1831 4219 
Q 1534 4219 1204 4116 
Q 875 4013 500 3803 
L 500 4441 
Q 881 4594 1212 4672 
Q 1544 4750 1819 4750 
Q 2544 4750 2975 4387 
Q 3406 4025 3406 3419 
Q 3406 3131 3298 2873 
Q 3191 2616 2906 2266 
Q 2828 2175 2409 1742 
Q 1991 1309 1228 531 
z
" transform="scale(0.015625)"/>
       </defs>
       <use xlink:href="#DejaVuSans-32"/>
       <use xlink:href="#DejaVuSans-30" transform="translate(63.623047 0)"/>
       <use xlink:href="#DejaVuSans-30" transform="translate(127.246094 0)"/>
      </g>
     </g>
    </g>
    <g id="xtick_4">
     <g id="line2d_4">
      <g>
       <use xlink:href="#m00a241eef9" x="295.623402" y="247.1175" style="stroke: #000000; stroke-width: 0.8"/>
      </g>
     </g>
     <g id="text_4">
      <!-- 300 -->
      <g transform="translate(286.079652 261.715937) scale(0.1 -0.1)">
       <defs>
        <path id="DejaVuSans-33" d="M 2597 2516 
Q 3050 2419 3304 2112 
Q 3559 1806 3559 1356 
Q 3559 666 3084 287 
Q 2609 -91 1734 -91 
Q 1441 -91 1130 -33 
Q 819 25 488 141 
L 488 750 
Q 750 597 1062 519 
Q 1375 441 1716 441 
Q 2309 441 2620 675 
Q 2931 909 2931 1356 
Q 2931 1769 2642 2001 
Q 2353 2234 1838 2234 
L 1294 2234 
L 1294 2753 
L 1863 2753 
Q 2328 2753 2575 2939 
Q 2822 3125 2822 3475 
Q 2822 3834 2567 4026 
Q 2313 4219 1838 4219 
Q 1578 4219 1281 4162 
Q 984 4106 628 3988 
L 628 4550 
Q 988 4650 1302 4700 
Q 1616 4750 1894 4750 
Q 2613 4750 3031 4423 
Q 3450 4097 3450 3541 
Q 3450 3153 3228 2886 
Q 3006 2619 2597 2516 
z
" transform="scale(0.015625)"/>
       </defs>
       <use xlink:href="#DejaVuSans-33"/>
       <use xlink:href="#DejaVuSans-30" transform="translate(63.623047 0)"/>
       <use xlink:href="#DejaVuSans-30" transform="translate(127.246094 0)"/>
      </g>
     </g>
    </g>
    <g id="xtick_5">
     <g id="line2d_5">
      <g>
       <use xlink:href="#m00a241eef9" x="368.09197" y="247.1175" style="stroke: #000000; stroke-width: 0.8"/>
      </g>
     </g>
     <g id="text_5">
      <!-- 400 -->
      <g transform="translate(358.54822 261.715937) scale(0.1 -0.1)">
       <defs>
        <path id="DejaVuSans-34" d="M 2419 4116 
L 825 1625 
L 2419 1625 
L 2419 4116 
z
M 2253 4666 
L 3047 4666 
L 3047 1625 
L 3713 1625 
L 3713 1100 
L 3047 1100 
L 3047 0 
L 2419 0 
L 2419 1100 
L 313 1100 
L 313 1709 
L 2253 4666 
z
" transform="scale(0.015625)"/>
       </defs>
       <use xlink:href="#DejaVuSans-34"/>
       <use xlink:href="#DejaVuSans-30" transform="translate(63.623047 0)"/>
       <use xlink:href="#DejaVuSans-30" transform="translate(127.246094 0)"/>
      </g>
     </g>
    </g>
    <g id="xtick_6">
     <g id="line2d_6">
      <g>
       <use xlink:href="#m00a241eef9" x="440.560538" y="247.1175" style="stroke: #000000; stroke-width: 0.8"/>
      </g>
     </g>
     <g id="text_6">
      <!-- 500 -->
      <g transform="translate(431.016788 261.715937) scale(0.1 -0.1)">
       <defs>
        <path id="DejaVuSans-35" d="M 691 4666 
L 3169 4666 
L 3169 4134 
L 1269 4134 
L 1269 2991 
Q 1406 3038 1543 3061 
Q 1681 3084 1819 3084 
Q 2600 3084 3056 2656 
Q 3513 2228 3513 1497 
Q 3513 744 3044 326 
Q 2575 -91 1722 -91 
Q 1428 -91 1123 -41 
Q 819 9 494 109 
L 494 744 
Q 775 591 1075 516 
Q 1375 441 1709 441 
Q 2250 441 2565 725 
Q 2881 1009 2881 1497 
Q 2881 1984 2565 2268 
Q 2250 2553 1709 2553 
Q 1456 2553 1204 2497 
Q 953 2441 691 2322 
L 691 4666 
z
" transform="scale(0.015625)"/>
       </defs>
       <use xlink:href="#DejaVuSans-35"/>
       <use xlink:href="#DejaVuSans-30" transform="translate(63.623047 0)"/>
       <use xlink:href="#DejaVuSans-30" transform="translate(127.246094 0)"/>
      </g>
     </g>
    </g>
    <g id="xtick_7">
     <g id="line2d_7">
      <g>
       <use xlink:href="#m00a241eef9" x="513.029105" y="247.1175" style="stroke: #000000; stroke-width: 0.8"/>
      </g>
     </g>
     <g id="text_7">
      <!-- 600 -->
      <g transform="translate(503.485355 261.715937) scale(0.1 -0.1)">
       <defs>
        <path id="DejaVuSans-36" d="M 2113 2584 
Q 1688 2584 1439 2293 
Q 1191 2003 1191 1497 
Q 1191 994 1439 701 
Q 1688 409 2113 409 
Q 2538 409 2786 701 
Q 3034 994 3034 1497 
Q 3034 2003 2786 2293 
Q 2538 2584 2113 2584 
z
M 3366 4563 
L 3366 3988 
Q 3128 4100 2886 4159 
Q 2644 4219 2406 4219 
Q 1781 4219 1451 3797 
Q 1122 3375 1075 2522 
Q 1259 2794 1537 2939 
Q 1816 3084 2150 3084 
Q 2853 3084 3261 2657 
Q 3669 2231 3669 1497 
Q 3669 778 3244 343 
Q 2819 -91 2113 -91 
Q 1303 -91 875 529 
Q 447 1150 447 2328 
Q 447 3434 972 4092 
Q 1497 4750 2381 4750 
Q 2619 4750 2861 4703 
Q 3103 4656 3366 4563 
z
" transform="scale(0.015625)"/>
       </defs>
       <use xlink:href="#DejaVuSans-36"/>
       <use xlink:href="#DejaVuSans-30" transform="translate(63.623047 0)"/>
       <use xlink:href="#DejaVuSans-30" transform="translate(127.246094 0)"/>
      </g>
     </g>
    </g>
    <g id="xtick_8">
     <g id="line2d_8">
      <g>
       <use xlink:href="#m00a241eef9" x="585.497673" y="247.1175" style="stroke: #000000; stroke-width: 0.8"/>
      </g>
     </g>
     <g id="text_8">
      <!-- 700 -->
      <g transform="translate(575.953923 261.715937) scale(0.1 -0.1)">
       <defs>
        <path id="DejaVuSans-37" d="M 525 4666 
L 3525 4666 
L 3525 4397 
L 1831 0 
L 1172 0 
L 2766 4134 
L 525 4134 
L 525 4666 
z
" transform="scale(0.015625)"/>
       </defs>
       <use xlink:href="#DejaVuSans-37"/>
       <use xlink:href="#DejaVuSans-30" transform="translate(63.623047 0)"/>
       <use xlink:href="#DejaVuSans-30" transform="translate(127.246094 0)"/>
      </g>
     </g>
    </g>
    <g id="text_9">
     <!-- Time [ms] -->
     <g transform="translate(296.575156 278.433438) scale(0.14 -0.14)">
      <defs>
       <path id="DejaVuSans-54" d="M -19 4666 
L 3928 4666 
L 3928 4134 
L 2272 4134 
L 2272 0 
L 1638 0 
L 1638 4134 
L -19 4134 
L -19 4666 
z
" transform="scale(0.015625)"/>
       <path id="DejaVuSans-69" d="M 603 3500 
L 1178 3500 
L 1178 0 
L 603 0 
L 603 3500 
z
M 603 4863 
L 1178 4863 
L 1178 4134 
L 603 4134 
L 603 4863 
z
" transform="scale(0.015625)"/>
       <path id="DejaVuSans-6d" d="M 3328 2828 
Q 3544 3216 3844 3400 
Q 4144 3584 4550 3584 
Q 5097 3584 5394 3201 
Q 5691 2819 5691 2113 
L 5691 0 
L 5113 0 
L 5113 2094 
Q 5113 2597 4934 2840 
Q 4756 3084 4391 3084 
Q 3944 3084 3684 2787 
Q 3425 2491 3425 1978 
L 3425 0 
L 2847 0 
L 2847 2094 
Q 2847 2600 2669 2842 
Q 2491 3084 2119 3084 
Q 1678 3084 1418 2786 
Q 1159 2488 1159 1978 
L 1159 0 
L 581 0 
L 581 3500 
L 1159 3500 
L 1159 2956 
Q 1356 3278 1631 3431 
Q 1906 3584 2284 3584 
Q 2666 3584 2933 3390 
Q 3200 3197 3328 2828 
z
" transform="scale(0.015625)"/>
       <path id="DejaVuSans-65" d="M 3597 1894 
L 3597 1613 
L 953 1613 
Q 991 1019 1311 708 
Q 1631 397 2203 397 
Q 2534 397 2845 478 
Q 3156 559 3463 722 
L 3463 178 
Q 3153 47 2828 -22 
Q 2503 -91 2169 -91 
Q 1331 -91 842 396 
Q 353 884 353 1716 
Q 353 2575 817 3079 
Q 1281 3584 2069 3584 
Q 2775 3584 3186 3129 
Q 3597 2675 3597 1894 
z
M 3022 2063 
Q 3016 2534 2758 2815 
Q 2500 3097 2075 3097 
Q 1594 3097 1305 2825 
Q 1016 2553 972 2059 
L 3022 2063 
z
" transform="scale(0.015625)"/>
       <path id="DejaVuSans-20" transform="scale(0.015625)"/>
       <path id="DejaVuSans-5b" d="M 550 4863 
L 1875 4863 
L 1875 4416 
L 1125 4416 
L 1125 -397 
L 1875 -397 
L 1875 -844 
L 550 -844 
L 550 4863 
z
" transform="scale(0.015625)"/>
       <path id="DejaVuSans-73" d="M 2834 3397 
L 2834 2853 
Q 2591 2978 2328 3040 
Q 2066 3103 1784 3103 
Q 1356 3103 1142 2972 
Q 928 2841 928 2578 
Q 928 2378 1081 2264 
Q 1234 2150 1697 2047 
L 1894 2003 
Q 2506 1872 2764 1633 
Q 3022 1394 3022 966 
Q 3022 478 2636 193 
Q 2250 -91 1575 -91 
Q 1294 -91 989 -36 
Q 684 19 347 128 
L 347 722 
Q 666 556 975 473 
Q 1284 391 1588 391 
Q 1994 391 2212 530 
Q 2431 669 2431 922 
Q 2431 1156 2273 1281 
Q 2116 1406 1581 1522 
L 1381 1569 
Q 847 1681 609 1914 
Q 372 2147 372 2553 
Q 372 3047 722 3315 
Q 1072 3584 1716 3584 
Q 2034 3584 2315 3537 
Q 2597 3491 2834 3397 
z
" transform="scale(0.015625)"/>
       <path id="DejaVuSans-5d" d="M 1947 4863 
L 1947 -844 
L 622 -844 
L 622 -397 
L 1369 -397 
L 1369 4416 
L 622 4416 
L 622 4863 
L 1947 4863 
z
" transform="scale(0.015625)"/>
      </defs>
      <use xlink:href="#DejaVuSans-54"/>
      <use xlink:href="#DejaVuSans-69" transform="translate(57.958984 0)"/>
      <use xlink:href="#DejaVuSans-6d" transform="translate(85.742188 0)"/>
      <use xlink:href="#DejaVuSans-65" transform="translate(183.154297 0)"/>
      <use xlink:href="#DejaVuSans-20" transform="translate(244.677734 0)"/>
      <use xlink:href="#DejaVuSans-5b" transform="translate(276.464844 0)"/>
      <use xlink:href="#DejaVuSans-6d" transform="translate(315.478516 0)"/>
      <use xlink:href="#DejaVuSans-73" transform="translate(412.890625 0)"/>
      <use xlink:href="#DejaVuSans-5d" transform="translate(464.990234 0)"/>
     </g>
    </g>
   </g>
   <g id="matplotlib.axis_2">
    <g id="ytick_1">
     <g id="line2d_9">
      <defs>
       <path id="mdcaabebaed" d="M 0 0 
L -3.5 0 
" style="stroke: #000000; stroke-width: 0.8"/>
      </defs>
      <g>
       <use xlink:href="#mdcaabebaed" x="52.854063" y="230.690833" style="stroke: #000000; stroke-width: 0.8"/>
      </g>
     </g>
     <g id="text_10">
      <!-- −80 -->
      <g transform="translate(24.749375 234.490052) scale(0.1 -0.1)">
       <defs>
        <path id="DejaVuSans-2212" d="M 678 2272 
L 4684 2272 
L 4684 1741 
L 678 1741 
L 678 2272 
z
" transform="scale(0.015625)"/>
        <path id="DejaVuSans-38" d="M 2034 2216 
Q 1584 2216 1326 1975 
Q 1069 1734 1069 1313 
Q 1069 891 1326 650 
Q 1584 409 2034 409 
Q 2484 409 2743 651 
Q 3003 894 3003 1313 
Q 3003 1734 2745 1975 
Q 2488 2216 2034 2216 
z
M 1403 2484 
Q 997 2584 770 2862 
Q 544 3141 544 3541 
Q 544 4100 942 4425 
Q 1341 4750 2034 4750 
Q 2731 4750 3128 4425 
Q 3525 4100 3525 3541 
Q 3525 3141 3298 2862 
Q 3072 2584 2669 2484 
Q 3125 2378 3379 2068 
Q 3634 1759 3634 1313 
Q 3634 634 3220 271 
Q 2806 -91 2034 -91 
Q 1263 -91 848 271 
Q 434 634 434 1313 
Q 434 1759 690 2068 
Q 947 2378 1403 2484 
z
M 1172 3481 
Q 1172 3119 1398 2916 
Q 1625 2713 2034 2713 
Q 2441 2713 2670 2916 
Q 2900 3119 2900 3481 
Q 2900 3844 2670 4047 
Q 2441 4250 2034 4250 
Q 1625 4250 1398 4047 
Q 1172 3844 1172 3481 
z
" transform="scale(0.015625)"/>
       </defs>
       <use xlink:href="#DejaVuSans-2212"/>
       <use xlink:href="#DejaVuSans-38" transform="translate(83.789062 0)"/>
       <use xlink:href="#DejaVuSans-30" transform="translate(147.412109 0)"/>
      </g>
     </g>
    </g>
    <g id="ytick_2">
     <g id="line2d_10">
      <g>
       <use xlink:href="#mdcaabebaed" x="52.854063" y="197.8375" style="stroke: #000000; stroke-width: 0.8"/>
      </g>
     </g>
     <g id="text_11">
      <!-- −60 -->
      <g transform="translate(24.749375 201.636719) scale(0.1 -0.1)">
       <use xlink:href="#DejaVuSans-2212"/>
       <use xlink:href="#DejaVuSans-36" transform="translate(83.789062 0)"/>
       <use xlink:href="#DejaVuSans-30" transform="translate(147.412109 0)"/>
      </g>
     </g>
    </g>
    <g id="ytick_3">
     <g id="line2d_11">
      <g>
       <use xlink:href="#mdcaabebaed" x="52.854063" y="164.984167" style="stroke: #000000; stroke-width: 0.8"/>
      </g>
     </g>
     <g id="text_12">
      <!-- −40 -->
      <g transform="translate(24.749375 168.783385) scale(0.1 -0.1)">
       <use xlink:href="#DejaVuSans-2212"/>
       <use xlink:href="#DejaVuSans-34" transform="translate(83.789062 0)"/>
       <use xlink:href="#DejaVuSans-30" transform="translate(147.412109 0)"/>
      </g>
     </g>
    </g>
    <g id="ytick_4">
     <g id="line2d_12">
      <g>
       <use xlink:href="#mdcaabebaed" x="52.854063" y="132.130833" style="stroke: #000000; stroke-width: 0.8"/>
      </g>
     </g>
     <g id="text_13">
      <!-- −20 -->
      <g transform="translate(24.749375 135.930052) scale(0.1 -0.1)">
       <use xlink:href="#DejaVuSans-2212"/>
       <use xlink:href="#DejaVuSans-32" transform="translate(83.789062 0)"/>
       <use xlink:href="#DejaVuSans-30" transform="translate(147.412109 0)"/>
      </g>
     </g>
    </g>
    <g id="ytick_5">
     <g id="line2d_13">
      <g>
       <use xlink:href="#mdcaabebaed" x="52.854063" y="99.2775" style="stroke: #000000; stroke-width: 0.8"/>
      </g>
     </g>
     <g id="text_14">
      <!-- 0 -->
      <g transform="translate(39.491563 103.076719) scale(0.1 -0.1)">
       <use xlink:href="#DejaVuSans-30"/>
      </g>
     </g>
    </g>
    <g id="ytick_6">
     <g id="line2d_14">
      <g>
       <use xlink:href="#mdcaabebaed" x="52.854063" y="66.424167" style="stroke: #000000; stroke-width: 0.8"/>
      </g>
     </g>
     <g id="text_15">
      <!-- 20 -->
      <g transform="translate(33.129063 70.223385) scale(0.1 -0.1)">
       <use xlink:href="#DejaVuSans-32"/>
       <use xlink:href="#DejaVuSans-30" transform="translate(63.623047 0)"/>
      </g>
     </g>
    </g>
    <g id="ytick_7">
     <g id="line2d_15">
      <g>
       <use xlink:href="#mdcaabebaed" x="52.854063" y="33.570833" style="stroke: #000000; stroke-width: 0.8"/>
      </g>
     </g>
     <g id="text_16">
      <!-- 40 -->
      <g transform="translate(33.129063 37.370052) scale(0.1 -0.1)">
       <use xlink:href="#DejaVuSans-34"/>
       <use xlink:href="#DejaVuSans-30" transform="translate(63.623047 0)"/>
      </g>
     </g>
    </g>
    <g id="text_17">
     <!-- Membrane Potential [mV] -->
     <g transform="translate(17.837812 225.937031) rotate(-90) scale(0.14 -0.14)">
      <defs>
       <path id="DejaVuSans-4d" d="M 628 4666 
L 1569 4666 
L 2759 1491 
L 3956 4666 
L 4897 4666 
L 4897 0 
L 4281 0 
L 4281 4097 
L 3078 897 
L 2444 897 
L 1241 4097 
L 1241 0 
L 628 0 
L 628 4666 
z
" transform="scale(0.015625)"/>
       <path id="DejaVuSans-62" d="M 3116 1747 
Q 3116 2381 2855 2742 
Q 2594 3103 2138 3103 
Q 1681 3103 1420 2742 
Q 1159 2381 1159 1747 
Q 1159 1113 1420 752 
Q 1681 391 2138 391 
Q 2594 391 2855 752 
Q 3116 1113 3116 1747 
z
M 1159 2969 
Q 1341 3281 1617 3432 
Q 1894 3584 2278 3584 
Q 2916 3584 3314 3078 
Q 3713 2572 3713 1747 
Q 3713 922 3314 415 
Q 2916 -91 2278 -91 
Q 1894 -91 1617 61 
Q 1341 213 1159 525 
L 1159 0 
L 581 0 
L 581 4863 
L 1159 4863 
L 1159 2969 
z
" transform="scale(0.015625)"/>
       <path id="DejaVuSans-72" d="M 2631 2963 
Q 2534 3019 2420 3045 
Q 2306 3072 2169 3072 
Q 1681 3072 1420 2755 
Q 1159 2438 1159 1844 
L 1159 0 
L 581 0 
L 581 3500 
L 1159 3500 
L 1159 2956 
Q 1341 3275 1631 3429 
Q 1922 3584 2338 3584 
Q 2397 3584 2469 3576 
Q 2541 3569 2628 3553 
L 2631 2963 
z
" transform="scale(0.015625)"/>
       <path id="DejaVuSans-61" d="M 2194 1759 
Q 1497 1759 1228 1600 
Q 959 1441 959 1056 
Q 959 750 1161 570 
Q 1363 391 1709 391 
Q 2188 391 2477 730 
Q 2766 1069 2766 1631 
L 2766 1759 
L 2194 1759 
z
M 3341 1997 
L 3341 0 
L 2766 0 
L 2766 531 
Q 2569 213 2275 61 
Q 1981 -91 1556 -91 
Q 1019 -91 701 211 
Q 384 513 384 1019 
Q 384 1609 779 1909 
Q 1175 2209 1959 2209 
L 2766 2209 
L 2766 2266 
Q 2766 2663 2505 2880 
Q 2244 3097 1772 3097 
Q 1472 3097 1187 3025 
Q 903 2953 641 2809 
L 641 3341 
Q 956 3463 1253 3523 
Q 1550 3584 1831 3584 
Q 2591 3584 2966 3190 
Q 3341 2797 3341 1997 
z
" transform="scale(0.015625)"/>
       <path id="DejaVuSans-6e" d="M 3513 2113 
L 3513 0 
L 2938 0 
L 2938 2094 
Q 2938 2591 2744 2837 
Q 2550 3084 2163 3084 
Q 1697 3084 1428 2787 
Q 1159 2491 1159 1978 
L 1159 0 
L 581 0 
L 581 3500 
L 1159 3500 
L 1159 2956 
Q 1366 3272 1645 3428 
Q 1925 3584 2291 3584 
Q 2894 3584 3203 3211 
Q 3513 2838 3513 2113 
z
" transform="scale(0.015625)"/>
       <path id="DejaVuSans-50" d="M 1259 4147 
L 1259 2394 
L 2053 2394 
Q 2494 2394 2734 2622 
Q 2975 2850 2975 3272 
Q 2975 3691 2734 3919 
Q 2494 4147 2053 4147 
L 1259 4147 
z
M 628 4666 
L 2053 4666 
Q 2838 4666 3239 4311 
Q 3641 3956 3641 3272 
Q 3641 2581 3239 2228 
Q 2838 1875 2053 1875 
L 1259 1875 
L 1259 0 
L 628 0 
L 628 4666 
z
" transform="scale(0.015625)"/>
       <path id="DejaVuSans-6f" d="M 1959 3097 
Q 1497 3097 1228 2736 
Q 959 2375 959 1747 
Q 959 1119 1226 758 
Q 1494 397 1959 397 
Q 2419 397 2687 759 
Q 2956 1122 2956 1747 
Q 2956 2369 2687 2733 
Q 2419 3097 1959 3097 
z
M 1959 3584 
Q 2709 3584 3137 3096 
Q 3566 2609 3566 1747 
Q 3566 888 3137 398 
Q 2709 -91 1959 -91 
Q 1206 -91 779 398 
Q 353 888 353 1747 
Q 353 2609 779 3096 
Q 1206 3584 1959 3584 
z
" transform="scale(0.015625)"/>
       <path id="DejaVuSans-74" d="M 1172 4494 
L 1172 3500 
L 2356 3500 
L 2356 3053 
L 1172 3053 
L 1172 1153 
Q 1172 725 1289 603 
Q 1406 481 1766 481 
L 2356 481 
L 2356 0 
L 1766 0 
Q 1100 0 847 248 
Q 594 497 594 1153 
L 594 3053 
L 172 3053 
L 172 3500 
L 594 3500 
L 594 4494 
L 1172 4494 
z
" transform="scale(0.015625)"/>
       <path id="DejaVuSans-6c" d="M 603 4863 
L 1178 4863 
L 1178 0 
L 603 0 
L 603 4863 
z
" transform="scale(0.015625)"/>
       <path id="DejaVuSans-56" d="M 1831 0 
L 50 4666 
L 709 4666 
L 2188 738 
L 3669 4666 
L 4325 4666 
L 2547 0 
L 1831 0 
z
" transform="scale(0.015625)"/>
      </defs>
      <use xlink:href="#DejaVuSans-4d"/>
      <use xlink:href="#DejaVuSans-65" transform="translate(86.279297 0)"/>
      <use xlink:href="#DejaVuSans-6d" transform="translate(147.802734 0)"/>
      <use xlink:href="#DejaVuSans-62" transform="translate(245.214844 0)"/>
      <use xlink:href="#DejaVuSans-72" transform="translate(308.691406 0)"/>
      <use xlink:href="#DejaVuSans-61" transform="translate(349.804688 0)"/>
      <use xlink:href="#DejaVuSans-6e" transform="translate(411.083984 0)"/>
      <use xlink:href="#DejaVuSans-65" transform="translate(474.462891 0)"/>
      <use xlink:href="#DejaVuSans-20" transform="translate(535.986328 0)"/>
      <use xlink:href="#DejaVuSans-50" transform="translate(567.773438 0)"/>
      <use xlink:href="#DejaVuSans-6f" transform="translate(624.451172 0)"/>
      <use xlink:href="#DejaVuSans-74" transform="translate(685.632812 0)"/>
      <use xlink:href="#DejaVuSans-65" transform="translate(724.841797 0)"/>
      <use xlink:href="#DejaVuSans-6e" transform="translate(786.365234 0)"/>
      <use xlink:href="#DejaVuSans-74" transform="translate(849.744141 0)"/>
      <use xlink:href="#DejaVuSans-69" transform="translate(888.953125 0)"/>
      <use xlink:href="#DejaVuSans-61" transform="translate(916.736328 0)"/>
      <use xlink:href="#DejaVuSans-6c" transform="translate(978.015625 0)"/>
      <use xlink:href="#DejaVuSans-20" transform="translate(1005.798828 0)"/>
      <use xlink:href="#DejaVuSans-5b" transform="translate(1037.585938 0)"/>
      <use xlink:href="#DejaVuSans-6d" transform="translate(1076.599609 0)"/>
      <use xlink:href="#DejaVuSans-56" transform="translate(1174.011719 0)"/>
      <use xlink:href="#DejaVuSans-5d" transform="translate(1242.419922 0)"/>
     </g>
    </g>
   </g>
   <g id="line2d_16">
    <path d="M 78.217699 206.050833 
L 79.167037 202.503411 
L 80.196091 199.499713 
L 81.319354 196.893266 
L 82.558566 194.571534 
L 83.942716 192.446973 
L 85.52253 190.431391 
L 87.370479 188.43959 
L 89.653239 186.317545 
L 92.899831 183.629985 
L 98.950956 178.653405 
L 101.306185 176.391215 
L 103.197614 174.270095 
L 104.79917 172.142276 
L 106.197813 169.91427 
L 107.437025 167.521096 
L 108.553041 164.87864 
L 109.567601 161.896088 
L 110.495199 158.462638 
L 111.343081 154.450309 
L 112.118495 149.680497 
L 112.828687 143.892933 
L 113.480904 136.688856 
L 114.075146 127.552309 
L 114.611414 115.728378 
L 115.089706 100.091349 
L 115.517271 78.478136 
L 115.894107 47.389513 
L 115.937588 42.572045 
L 116.053538 181.50637 
L 117.901487 182.97508 
L 119.662473 184.095475 
L 121.394472 184.937037 
L 123.155458 185.546589 
L 124.996159 185.947063 
L 126.960058 186.144569 
L 129.112374 186.133729 
L 131.511084 185.894402 
L 134.214161 185.395976 
L 137.2361 184.608586 
L 140.504433 183.524973 
L 143.794506 182.201032 
L 146.867173 180.728747 
L 149.599238 179.177776 
L 151.983454 177.572305 
L 154.048808 175.917258 
L 155.853275 174.189427 
L 157.447584 172.355507 
L 158.860721 170.391267 
L 160.128921 168.247101 
L 161.281171 165.857002 
L 162.331965 163.155055 
L 163.288551 160.072194 
L 164.172667 156.452528 
L 164.984315 152.162605 
L 165.730741 146.977808 
L 166.411946 140.634063 
L 167.035175 132.671231 
L 167.60043 122.48934 
L 168.114957 108.977039 
L 168.571509 90.806756 
L 168.977333 65.16245 
L 169.216479 42.077844 
L 169.332429 181.516309 
L 171.173131 183.139446 
L 172.905129 184.375551 
L 174.593647 185.310758 
L 176.296658 186.001061 
L 178.057645 186.475157 
L 179.934581 186.748464 
L 181.985441 186.818435 
L 184.268201 186.669229 
L 186.862576 186.271205 
L 189.819293 185.587362 
L 193.131107 184.589093 
L 196.616845 183.305489 
L 199.979386 181.833503 
L 203.008572 180.26944 
L 205.646428 178.661833 
L 207.921941 177.019117 
L 209.893086 175.326002 
L 211.617838 173.554344 
L 213.139678 171.674402 
L 214.502087 169.636799 
L 215.726806 167.401819 
L 216.835575 164.91168 
L 217.850135 162.077935 
L 218.777733 158.816384 
L 219.632862 154.977136 
L 220.415522 150.417729 
L 221.140208 144.833601 
L 221.799672 137.964174 
L 222.401161 129.289354 
L 222.944675 118.12611 
L 223.437462 103.200774 
L 223.872273 82.985181 
L 224.256357 54.220896 
L 224.372306 41.980186 
L 224.488256 181.515942 
L 226.328958 183.133179 
L 228.060956 184.364465 
L 229.749474 185.295771 
L 231.452485 185.98293 
L 233.220718 186.456004 
L 235.097654 186.726476 
L 237.148515 186.794114 
L 239.438521 186.642162 
L 242.032896 186.241827 
L 244.996861 185.553796 
L 248.308674 184.552456 
L 251.787165 183.267902 
L 255.14246 181.794774 
L 258.164399 180.229322 
L 260.795008 178.620229 
L 263.063275 176.97617 
L 265.027173 175.282144 
L 266.744678 173.510355 
L 268.266518 171.621667 
L 269.62168 169.584986 
L 270.846399 167.338558 
L 271.955168 164.833638 
L 272.969728 161.980432 
L 273.897325 158.692957 
L 274.752455 154.818308 
L 275.535115 150.209931 
L 276.252554 144.620875 
L 276.912018 137.67337 
L 277.513507 128.880943 
L 278.057021 117.534939 
L 278.549808 102.309649 
L 278.984619 81.585549 
L 279.368702 51.892954 
L 279.455665 42.586628 
L 279.571614 181.516041 
L 281.412316 183.134872 
L 283.144315 184.367459 
L 284.832832 185.299819 
L 286.535844 185.987828 
L 288.304077 186.461581 
L 290.181013 186.73259 
L 292.231873 186.800653 
L 294.52188 186.649044 
L 297.116255 186.24901 
L 300.080219 185.561301 
L 303.392033 184.560394 
L 306.870524 183.276491 
L 310.225818 181.804319 
L 313.247758 180.240179 
L 315.878367 178.632794 
L 318.146633 176.990891 
L 320.117778 175.292727 
L 321.84253 173.514742 
L 323.36437 171.626871 
L 324.719532 169.591233 
L 325.944251 167.346153 
L 327.05302 164.842982 
L 328.06758 161.992084 
L 328.995178 158.707693 
L 329.850307 154.837261 
L 330.632967 150.234728 
L 331.350406 144.65397 
L 332.00987 137.718638 
L 332.611359 128.944573 
L 333.154873 117.627156 
L 333.64766 102.448894 
L 334.082471 81.804772 
L 334.466554 52.258825 
L 334.560764 42.175673 
L 334.676713 181.515978 
L 336.517415 183.133805 
L 338.249414 184.365573 
L 339.937931 185.297269 
L 341.640943 185.984742 
L 343.409176 186.458068 
L 345.286112 186.728738 
L 347.336972 186.796533 
L 349.626979 186.644708 
L 352.221353 186.244485 
L 355.185318 185.556573 
L 358.497131 184.555394 
L 361.975623 183.271081 
L 365.330917 181.798307 
L 368.352857 180.233341 
L 370.983466 178.62488 
L 373.251732 176.98162 
L 375.222877 175.281757 
L 376.940382 173.509849 
L 378.462222 171.621024 
L 379.817384 169.584177 
L 381.042103 167.337542 
L 382.150872 164.832362 
L 383.165432 161.978816 
L 384.09303 158.690894 
L 384.948159 154.815635 
L 385.730819 150.206416 
L 386.448258 144.616169 
L 387.107722 137.666919 
L 387.709211 128.871861 
L 388.252725 117.521763 
L 388.745512 102.289736 
L 389.180323 81.554175 
L 389.564406 51.840546 
L 389.651369 42.526509 
L 389.767318 181.516031 
L 391.60802 183.134703 
L 393.340019 184.367161 
L 395.028536 185.299416 
L 396.731548 185.987341 
L 398.499781 186.461027 
L 400.376717 186.731982 
L 402.427577 186.800003 
L 404.717584 186.64836 
L 407.311959 186.248296 
L 410.275923 185.560555 
L 413.587737 184.559605 
L 417.066228 183.275637 
L 420.421523 181.80337 
L 423.443462 180.239101 
L 426.074071 178.631545 
L 428.342337 176.989428 
L 430.313482 175.290996 
L 432.038234 173.512677 
L 433.560074 171.624388 
L 434.915236 169.588224 
L 436.139955 167.342471 
L 437.248724 164.838432 
L 438.263284 161.986392 
L 439.190882 158.700479 
L 440.046011 154.827969 
L 440.828671 150.222559 
L 441.54611 144.637718 
L 442.205574 137.6964 
L 442.807063 128.913309 
L 443.350577 117.581843 
L 443.843364 102.380477 
L 444.278175 81.697076 
L 444.662258 52.079138 
L 444.756468 41.967163 
L 444.872417 181.515949 
L 446.713119 183.133298 
L 448.445118 184.364676 
L 450.133635 185.296056 
L 451.836647 185.983275 
L 453.60488 186.456397 
L 455.481816 186.726906 
L 457.532676 186.794574 
L 459.822683 186.642646 
L 462.417058 186.242333 
L 465.381022 185.554324 
L 468.692836 184.553015 
L 472.171327 183.268507 
L 475.526621 181.795446 
L 478.548561 180.230087 
L 481.17917 178.621114 
L 483.447436 176.977208 
L 485.411334 175.283371 
L 487.136086 173.503622 
L 488.657926 171.613535 
L 490.013088 169.5751 
L 491.237807 167.326434 
L 492.346576 164.818632 
L 493.361136 161.961636 
L 494.288734 158.669116 
L 495.143863 154.787575 
L 495.926523 150.169657 
L 496.643962 144.567058 
L 497.303426 137.599687 
L 497.904915 128.777279 
L 498.448429 117.384572 
L 498.933969 102.358228 
L 499.36878 81.662057 
L 499.752864 52.020699 
L 499.847073 41.899342 
L 499.963022 181.515941 
L 501.803724 183.133177 
L 503.535723 184.364461 
L 505.224241 185.295765 
L 506.927252 185.982923 
L 508.695485 186.455996 
L 510.572421 186.726467 
L 512.623281 186.794105 
L 514.913288 186.642152 
L 517.507663 186.241817 
L 520.471627 185.553785 
L 523.783441 184.552445 
L 527.261932 183.26789 
L 530.617227 181.794761 
L 533.639166 180.229307 
L 536.269775 178.620211 
L 538.538041 176.97615 
L 540.501939 175.28212 
L 542.219444 173.510326 
L 543.741284 171.621633 
L 545.096446 169.584944 
L 546.321165 167.338507 
L 547.429934 164.833575 
L 548.444494 161.980352 
L 549.372092 158.692857 
L 550.227221 154.818178 
L 551.009882 150.209761 
L 551.72732 144.620648 
L 552.386784 137.67306 
L 552.988274 128.880507 
L 553.531788 117.534307 
L 554.024574 102.308695 
L 554.459385 81.584046 
L 554.843469 51.890444 
L 554.930431 42.583748 
L 555.046381 181.51604 
L 556.887082 183.134865 
L 558.619081 184.367447 
L 560.307599 185.299802 
L 562.01061 185.987808 
L 563.778843 186.461558 
L 565.655779 186.732565 
L 567.70664 186.800626 
L 569.996646 186.649015 
L 572.591021 186.24898 
L 575.554986 185.56127 
L 578.866799 184.560361 
L 582.34529 183.276455 
L 585.490426 181.903959 
L 585.490426 181.903959 
" clip-path="url(#p24ea5c69d9)" style="fill: none; stroke: #000000; stroke-width: 1.5; stroke-linecap: square"/>
   </g>
   <g id="line2d_17">
    <path d="M 78.217699 206.050833 
L 79.167037 202.503411 
L 80.196091 199.499713 
L 81.319354 196.893266 
L 82.558566 194.571534 
L 83.942716 192.446973 
L 85.52253 190.431391 
L 87.370479 188.43959 
L 89.653239 186.317545 
L 92.899831 183.629985 
L 98.950956 178.653405 
L 101.306185 176.391215 
L 103.197614 174.270095 
L 104.79917 172.142276 
L 106.197813 169.91427 
L 107.437025 167.521096 
L 108.553041 164.87864 
L 109.567601 161.896088 
L 110.495199 158.462638 
L 111.343081 154.450309 
L 112.118495 149.680497 
L 112.828687 143.892933 
L 113.480904 136.688856 
L 114.075146 127.552309 
L 114.611414 115.728378 
L 115.089706 100.091349 
L 115.517271 78.478136 
L 115.894107 47.389513 
L 115.937588 42.572045 
L 116.053538 181.50637 
L 116.937655 182.132841 
L 118.778356 183.148934 
L 120.604564 183.905307 
L 122.467006 184.436185 
L 124.409164 184.757853 
L 126.489012 184.874227 
L 128.750031 184.774159 
L 131.235703 184.437395 
L 133.967768 183.838864 
L 136.902745 182.965763 
L 139.910191 181.839041 
L 142.808933 180.517431 
L 145.454036 179.07037 
L 147.802018 177.535541 
L 149.860125 175.927444 
L 151.664592 174.238223 
L 153.258901 172.443293 
L 154.679285 170.510213 
L 155.954731 168.398491 
L 157.114229 166.043791 
L 158.17227 163.381642 
L 159.136102 160.344262 
L 160.027465 156.778725 
L 160.84636 152.553696 
L 161.600033 147.448133 
L 162.288484 141.20121 
L 162.918961 133.35852 
L 163.491463 123.324453 
L 164.005989 110.220111 
L 164.469788 92.3797 
L 164.875612 67.720746 
L 165.143746 42.473086 
L 165.259696 181.517296 
L 166.165553 182.246148 
L 167.977267 183.408643 
L 169.752747 184.286691 
L 171.54272 184.925222 
L 173.397916 185.350853 
L 175.369061 185.573323 
L 177.51413 185.58794 
L 179.883853 185.376933 
L 182.521708 184.914436 
L 185.449439 184.171293 
L 188.587328 183.143059 
L 191.746957 181.874141 
L 194.710921 180.44727 
L 197.363271 178.927785 
L 199.689512 177.342397 
L 201.718632 175.693002 
L 203.494112 173.965198 
L 205.059433 172.133259 
L 206.458076 170.15313 
L 207.711783 167.99106 
L 208.849539 165.581369 
L 209.88584 162.859065 
L 210.835178 159.730208 
L 211.712047 156.052552 
L 212.516449 151.689709 
L 213.255628 146.412019 
L 213.929586 139.949898 
L 214.545568 131.833365 
L 215.103576 121.451368 
L 215.610856 107.671759 
L 216.060162 89.155859 
L 216.458739 63.066573 
L 216.668898 42.478847 
L 216.784847 181.516728 
L 217.690704 182.24096 
L 219.502419 183.394975 
L 221.277898 184.265878 
L 223.075119 184.900512 
L 224.937561 185.321463 
L 226.915953 185.538529 
L 229.061023 185.547373 
L 231.430745 185.33122 
L 234.075847 184.862311 
L 237.003578 184.113573 
L 240.13422 183.081539 
L 243.279356 181.8115 
L 246.228826 180.383768 
L 248.866682 178.863827 
L 251.178429 177.278823 
L 253.193056 175.631301 
L 254.961289 173.899941 
L 256.519363 172.064741 
L 257.910759 170.081973 
L 259.164466 167.904589 
L 260.302222 165.475088 
L 261.338523 162.726874 
L 262.287861 159.563552 
L 263.157484 155.873779 
L 263.954638 151.502144 
L 264.693817 146.162735 
L 265.367775 139.61154 
L 265.983758 131.361928 
L 266.541766 120.775066 
L 267.041799 106.90884 
L 267.491104 87.973167 
L 267.889681 61.13066 
L 268.078099 42.358793 
L 268.194049 181.516737 
L 269.099906 182.241046 
L 270.91162 183.395201 
L 272.6871 184.266222 
L 274.484321 184.900955 
L 276.346763 185.321989 
L 278.325155 185.539125 
L 280.470225 185.548029 
L 282.839947 185.331929 
L 285.485049 184.86307 
L 288.41278 184.11439 
L 291.543422 183.082428 
L 294.688558 181.812486 
L 297.638028 180.384885 
L 300.275884 178.865115 
L 302.587631 177.280328 
L 304.602258 175.633077 
L 306.370491 173.902055 
L 307.928565 172.067276 
L 309.319961 170.08504 
L 310.573668 167.908332 
L 311.711424 165.479704 
L 312.747725 162.73263 
L 313.697063 159.570824 
L 314.566686 155.883097 
L 315.371087 151.468871 
L 316.103019 146.178888 
L 316.776977 139.633499 
L 317.39296 131.392575 
L 317.950968 120.819115 
L 318.451001 106.97428 
L 318.900306 88.074857 
L 319.298883 61.297661 
L 319.487301 42.581171 
L 319.603251 181.516769 
L 320.509108 182.241336 
L 322.320822 183.395965 
L 324.096302 184.267385 
L 325.893523 184.902455 
L 327.755965 185.323771 
L 329.734357 185.541143 
L 331.879426 185.550248 
L 334.249149 185.334326 
L 336.894251 184.86564 
L 339.821982 184.11715 
L 342.952624 183.085432 
L 346.097759 181.81582 
L 349.04723 180.388663 
L 351.685086 178.86947 
L 353.996833 177.285415 
L 356.01146 175.63908 
L 357.779693 173.909201 
L 359.337767 172.075847 
L 360.729163 170.095404 
L 361.98287 167.920981 
L 363.120626 165.495301 
L 364.156927 162.752076 
L 365.106265 159.595387 
L 365.975888 155.914567 
L 366.780289 151.509949 
L 367.519468 146.17311 
L 368.193426 139.62563 
L 368.809409 131.381581 
L 369.367417 120.803304 
L 369.86745 106.950784 
L 370.316755 88.03834 
L 370.715332 61.237695 
L 370.90375 42.501328 
L 371.0197 181.516756 
L 371.925557 182.241216 
L 373.737271 183.395651 
L 375.512751 184.266906 
L 377.309972 184.901838 
L 379.172414 185.323038 
L 381.150806 185.540312 
L 383.295875 185.549335 
L 385.665597 185.333339 
L 388.3107 184.864582 
L 391.23843 184.116014 
L 394.369072 183.084196 
L 397.514208 181.814448 
L 400.463679 180.387108 
L 403.101535 178.867678 
L 405.413282 177.283321 
L 407.427908 175.636609 
L 409.196141 173.906261 
L 410.754216 172.07232 
L 412.145612 170.091139 
L 413.399318 167.915777 
L 414.537075 165.488884 
L 415.573375 162.744076 
L 416.522714 159.585282 
L 417.392336 155.901622 
L 418.196738 151.493053 
L 418.935917 146.150616 
L 419.609875 139.595049 
L 420.225857 131.338897 
L 420.783865 120.741945 
L 421.283899 106.859612 
L 421.733204 87.896632 
L 422.131781 61.004894 
L 422.320199 42.191257 
L 422.436149 181.516711 
L 423.342006 182.240812 
L 425.15372 183.394586 
L 426.9292 184.265285 
L 428.72642 184.899748 
L 430.588863 185.320556 
L 432.567255 185.537502 
L 434.712324 185.546244 
L 437.082046 185.33 
L 439.727149 184.861002 
L 442.654879 184.112167 
L 445.785521 183.080009 
L 448.930657 181.809802 
L 451.880128 180.381843 
L 454.517984 178.861609 
L 456.829731 177.276231 
L 458.844357 175.628242 
L 460.61259 173.896299 
L 462.170664 172.060373 
L 463.562061 170.07669 
L 464.815767 167.89814 
L 465.946277 165.484344 
L 466.982577 162.738441 
L 467.931916 159.578187 
L 468.801538 155.892551 
L 469.605939 151.48123 
L 470.345119 146.134888 
L 471.019077 139.573677 
L 471.635059 131.309073 
L 472.193067 120.699071 
L 472.6931 106.795892 
L 473.142406 87.797551 
L 473.540983 60.842012 
L 473.729401 41.974207 
L 473.845351 181.516682 
L 474.751208 182.240545 
L 476.562922 183.393882 
L 478.338402 184.264213 
L 480.135622 184.898367 
L 481.998065 185.318915 
L 483.976456 185.535643 
L 486.121526 185.5442 
L 488.498495 185.326813 
L 491.143598 184.857062 
L 494.071328 184.107501 
L 497.20197 183.074586 
L 500.347106 181.803517 
L 503.296577 180.374528 
L 505.934432 178.853033 
L 508.238933 177.27154 
L 510.253559 175.622706 
L 512.021792 173.889707 
L 513.579866 172.052465 
L 514.971263 170.067125 
L 516.224969 167.886463 
L 517.355479 165.469962 
L 518.391779 162.720507 
L 519.341118 159.55553 
L 520.21074 155.863517 
L 521.007895 151.488798 
L 521.747074 146.144981 
L 522.421032 139.587415 
L 523.037014 131.328265 
L 523.595022 120.726681 
L 524.095056 106.836944 
L 524.544361 87.861405 
L 524.942938 60.947007 
L 525.131356 42.114135 
L 525.247306 181.516704 
L 526.153163 182.240742 
L 527.964877 183.394402 
L 529.740357 184.265004 
L 531.537577 184.899386 
L 533.40002 185.320126 
L 535.378412 185.537015 
L 537.523481 185.545709 
L 539.893203 185.329422 
L 542.538306 184.860382 
L 545.466036 184.111501 
L 548.596678 183.079284 
L 551.741814 181.808997 
L 554.691285 180.380932 
L 557.329141 178.860558 
L 559.640888 177.275003 
L 561.655514 175.626792 
L 563.423747 173.894574 
L 564.981821 172.058302 
L 566.373218 170.074186 
L 567.626924 167.895083 
L 568.757434 165.48058 
L 569.793734 162.733747 
L 570.743073 159.572257 
L 571.612695 155.884953 
L 572.417097 151.471311 
L 573.156276 146.12168 
L 573.830234 139.555714 
L 574.446216 131.283991 
L 575.004224 120.662999 
L 575.504258 106.742257 
L 575.953563 87.714112 
L 576.35214 60.704762 
L 576.540558 41.791239 
L 576.656508 181.516656 
L 577.562365 182.240308 
L 579.374079 183.393256 
L 581.149559 184.26326 
L 582.946779 184.897138 
L 584.809222 185.317455 
L 585.490426 185.416951 
L 585.490426 185.416951 
" clip-path="url(#p24ea5c69d9)" style="fill: none; stroke: #00bfff; stroke-width: 1.5; stroke-linecap: square"/>
   </g>
   <g id="line2d_18">
    <path d="M 78.217699 206.050833 
L 79.167037 202.503411 
L 80.196091 199.499713 
L 81.319354 196.893266 
L 82.558566 194.571534 
L 83.942716 192.446973 
L 85.52253 190.431391 
L 87.370479 188.43959 
L 89.653239 186.317545 
L 92.899831 183.629985 
L 98.950956 178.653405 
L 101.306185 176.391215 
L 103.197614 174.270095 
L 104.79917 172.142276 
L 106.197813 169.91427 
L 107.437025 167.521096 
L 108.553041 164.87864 
L 109.567601 161.896088 
L 110.495199 158.462638 
L 111.343081 154.450309 
L 112.118495 149.680497 
L 112.828687 143.892933 
L 113.480904 136.688856 
L 114.075146 127.552309 
L 114.611414 115.728378 
L 115.089706 100.091349 
L 115.517271 78.478136 
L 115.894107 47.389513 
L 115.937588 42.572045 
L 116.053538 181.50637 
L 120.278456 185.052751 
L 121.923492 185.968933 
L 123.590269 186.643357 
L 125.322268 187.10372 
L 127.177463 187.364202 
L 129.21383 187.42132 
L 131.49659 187.258263 
L 134.119952 186.841798 
L 137.149138 186.129599 
L 140.584148 185.089339 
L 144.243811 183.747852 
L 147.780277 182.217488 
L 150.939907 180.612851 
L 153.671972 178.98112 
L 156.019953 177.324147 
L 158.049073 175.62303 
L 159.817306 173.852142 
L 161.37538 171.977043 
L 162.75953 169.96248 
L 164.005989 167.751854 
L 165.136499 165.286196 
L 166.165553 162.497508 
L 167.107644 159.287598 
L 167.97002 155.543319 
L 168.767174 151.060422 
L 169.499107 145.626015 
L 170.165818 138.956252 
L 170.774554 130.555561 
L 171.325315 119.775981 
L 171.825348 105.412856 
L 172.267406 86.029151 
L 172.658736 58.569056 
L 172.818167 42.348597 
L 172.934117 181.515725 
L 176.98511 185.250592 
L 178.586665 186.258855 
L 180.195467 187.011931 
L 181.862244 187.546468 
L 183.630477 187.878203 
L 185.558141 188.01067 
L 187.717705 187.931848 
L 190.19613 187.613171 
L 193.087626 187.010957 
L 196.464661 186.074303 
L 200.225779 184.797637 
L 204.037626 183.270805 
L 207.523364 181.640055 
L 210.545304 179.986407 
L 213.125185 178.326655 
L 215.335476 176.645275 
L 217.248646 174.914425 
L 218.92267 173.102526 
L 220.401029 171.176393 
L 221.727204 169.08141 
L 222.922935 166.771575 
L 224.009963 164.179067 
L 225.002783 161.222939 
L 225.90864 157.814285 
L 226.742028 153.794385 
L 227.510195 148.961284 
L 228.21314 143.079237 
L 228.858111 135.738833 
L 229.445106 126.409882 
L 229.974127 114.317374 
L 230.452419 98.004541 
L 230.872737 75.686315 
L 231.242326 43.524674 
L 231.25682 41.866013 
L 231.37277 181.51544 
L 235.423763 185.241165 
L 237.032565 186.250786 
L 238.648614 187.003571 
L 240.315391 187.534554 
L 242.083624 187.863338 
L 244.018535 187.993475 
L 246.185345 187.911338 
L 248.671017 187.588541 
L 251.56976 186.981504 
L 254.946795 186.041473 
L 258.707914 184.761144 
L 262.512513 183.232919 
L 265.991005 181.600543 
L 269.005697 179.945069 
L 271.578331 178.283462 
L 273.781376 176.600418 
L 275.687299 174.868365 
L 277.354076 173.056081 
L 278.832435 171.120455 
L 280.151363 169.026129 
L 281.339847 166.719374 
L 282.419629 164.133712 
L 283.412448 161.166048 
L 284.318305 157.74199 
L 285.151694 153.701004 
L 285.919861 148.83833 
L 286.622806 142.914037 
L 287.267776 135.511221 
L 287.854772 126.087343 
L 288.383792 113.845651 
L 288.854838 97.59378 
L 289.275156 75.032217 
L 289.644745 42.418147 
L 289.760695 181.515526 
L 293.811688 185.243989 
L 295.42049 186.25439 
L 297.036539 187.007779 
L 298.703316 187.539218 
L 300.471549 187.868341 
L 302.40646 187.998723 
L 304.57327 187.916755 
L 307.058942 187.594079 
L 309.957685 186.987155 
L 313.33472 186.047289 
L 317.095839 184.767266 
L 320.900438 183.239572 
L 324.37893 181.607993 
L 327.393622 179.9536 
L 329.966256 178.293382 
L 332.176548 176.606047 
L 334.082471 174.875003 
L 335.756495 173.055348 
L 337.234854 171.119522 
L 338.553782 169.024953 
L 339.742266 166.717898 
L 340.822048 164.131853 
L 341.814867 161.163687 
L 342.720724 157.738965 
L 343.554113 153.697072 
L 344.32228 148.833131 
L 345.025225 142.907029 
L 345.670195 135.501543 
L 346.25719 126.0736 
L 346.786211 113.825514 
L 347.257257 97.5632 
L 347.677574 74.983444 
L 348.047164 42.335465 
L 348.163114 181.515512 
L 352.214107 185.243536 
L 353.822909 186.253812 
L 355.438958 187.007104 
L 357.105735 187.53847 
L 358.873968 187.867539 
L 360.808879 187.997881 
L 362.975689 187.915886 
L 365.461361 187.593191 
L 368.360103 186.986249 
L 371.737139 186.046357 
L 375.498257 184.766285 
L 379.302857 183.238506 
L 382.781348 181.606799 
L 385.796041 179.952233 
L 388.368675 178.291792 
L 390.578966 176.604177 
L 392.48489 174.872785 
L 394.151667 173.061334 
L 395.630026 171.126762 
L 396.948953 169.03377 
L 398.137438 166.728725 
L 399.21722 164.145281 
L 400.210039 161.180564 
L 401.115896 157.760441 
L 401.949285 153.724843 
L 402.717451 148.86973 
L 403.420397 142.956245 
L 404.065367 135.569406 
L 404.652362 126.169852 
L 405.181383 113.966432 
L 405.659675 97.469136 
L 406.079993 74.833385 
L 406.449583 42.080961 
L 406.565532 181.515476 
L 410.616525 185.242333 
L 412.225328 186.252277 
L 413.841377 187.005312 
L 415.508154 187.536483 
L 417.276387 187.865407 
L 419.211297 187.995646 
L 421.378108 187.913579 
L 423.86378 187.590832 
L 426.762522 186.983841 
L 430.139557 186.043879 
L 433.900676 184.763677 
L 437.705276 183.235671 
L 441.183767 181.603625 
L 444.19846 179.948599 
L 446.771094 178.287567 
L 448.974138 176.605244 
L 450.880062 174.874089 
L 452.554085 173.054286 
L 454.032444 171.118266 
L 455.351372 169.023448 
L 456.539857 166.71607 
L 457.619638 164.129603 
L 458.612458 161.160875 
L 459.518315 157.735399 
L 460.351703 153.692472 
L 461.11987 148.827078 
L 461.822815 142.898899 
L 462.467786 135.490337 
L 463.054781 126.057709 
L 463.583801 113.802246 
L 464.054847 97.52788 
L 464.475165 74.927114 
L 464.844755 42.239957 
L 464.960704 181.515499 
L 469.011697 185.243115 
L 470.620499 186.253275 
L 472.236548 187.006477 
L 473.903326 187.537775 
L 475.671559 187.866793 
L 477.606469 187.997099 
L 479.77328 187.915079 
L 482.258951 187.592366 
L 485.157694 186.985406 
L 488.534729 186.04549 
L 492.295848 184.765373 
L 496.100448 183.237514 
L 499.578939 181.605688 
L 502.593632 179.950961 
L 505.166266 178.290314 
L 507.36931 176.608473 
L 509.28248 174.870722 
L 510.949257 173.058868 
L 512.427616 171.12379 
L 513.746544 169.03016 
L 514.935029 166.724299 
L 516.01481 164.139798 
L 517.00763 161.173678 
L 517.913487 157.751684 
L 518.746875 153.713524 
L 519.515042 148.854818 
L 520.217987 142.936198 
L 520.862957 135.54177 
L 521.449953 126.130664 
L 521.978973 113.909074 
L 522.457266 97.381502 
L 522.877584 74.693507 
L 523.247173 41.843528 
L 523.363123 181.515442 
L 527.414116 185.241212 
L 529.022918 186.250847 
L 530.638967 187.003642 
L 532.305744 187.534632 
L 534.073977 187.863422 
L 536.008888 187.993564 
L 538.175698 187.911429 
L 540.66137 187.588634 
L 543.560113 186.981599 
L 546.937148 186.041571 
L 550.698267 184.761247 
L 554.502867 183.233031 
L 557.981358 181.600668 
L 560.99605 179.945213 
L 563.568684 178.283629 
L 565.771729 176.600614 
L 567.677652 174.868598 
L 569.344429 173.056359 
L 570.822788 171.120791 
L 572.141716 169.026536 
L 573.3302 166.719873 
L 574.409982 164.13433 
L 575.402802 161.166825 
L 576.308659 157.742979 
L 577.142047 153.702282 
L 577.910214 148.840014 
L 578.613159 142.916301 
L 579.258129 135.514343 
L 579.845125 126.091772 
L 580.374145 113.852137 
L 580.845191 97.603624 
L 581.265509 75.047912 
L 581.635098 42.444747 
L 581.751048 181.51553 
L 585.490426 185.016628 
L 585.490426 185.016628 
" clip-path="url(#p24ea5c69d9)" style="fill: none; stroke: #ba55d3; stroke-width: 1.5; stroke-linecap: square"/>
   </g>
   <g id="patch_3">
    <path d="M 52.854063 247.1175 
L 52.854063 25.3575 
" style="fill: none; stroke: #000000; stroke-width: 0.8; stroke-linejoin: miter; stroke-linecap: square"/>
   </g>
   <g id="patch_4">
    <path d="M 610.854063 247.1175 
L 610.854063 25.3575 
" style="fill: none; stroke: #000000; stroke-width: 0.8; stroke-linejoin: miter; stroke-linecap: square"/>
   </g>
   <g id="patch_5">
    <path d="M 52.854063 247.1175 
L 610.854063 247.1175 
" style="fill: none; stroke: #000000; stroke-width: 0.8; stroke-linejoin: miter; stroke-linecap: square"/>
   </g>
   <g id="patch_6">
    <path d="M 52.854063 25.3575 
L 610.854063 25.3575 
" style="fill: none; stroke: #000000; stroke-width: 0.8; stroke-linejoin: miter; stroke-linecap: square"/>
   </g>
   <g id="text_18">
    <!-- Model response with different autapses -->
    <g transform="translate(173.917812 19.3575) scale(0.16 -0.16)">
     <defs>
      <path id="DejaVuSans-64" d="M 2906 2969 
L 2906 4863 
L 3481 4863 
L 3481 0 
L 2906 0 
L 2906 525 
Q 2725 213 2448 61 
Q 2172 -91 1784 -91 
Q 1150 -91 751 415 
Q 353 922 353 1747 
Q 353 2572 751 3078 
Q 1150 3584 1784 3584 
Q 2172 3584 2448 3432 
Q 2725 3281 2906 2969 
z
M 947 1747 
Q 947 1113 1208 752 
Q 1469 391 1925 391 
Q 2381 391 2643 752 
Q 2906 1113 2906 1747 
Q 2906 2381 2643 2742 
Q 2381 3103 1925 3103 
Q 1469 3103 1208 2742 
Q 947 2381 947 1747 
z
" transform="scale(0.015625)"/>
      <path id="DejaVuSans-70" d="M 1159 525 
L 1159 -1331 
L 581 -1331 
L 581 3500 
L 1159 3500 
L 1159 2969 
Q 1341 3281 1617 3432 
Q 1894 3584 2278 3584 
Q 2916 3584 3314 3078 
Q 3713 2572 3713 1747 
Q 3713 922 3314 415 
Q 2916 -91 2278 -91 
Q 1894 -91 1617 61 
Q 1341 213 1159 525 
z
M 3116 1747 
Q 3116 2381 2855 2742 
Q 2594 3103 2138 3103 
Q 1681 3103 1420 2742 
Q 1159 2381 1159 1747 
Q 1159 1113 1420 752 
Q 1681 391 2138 391 
Q 2594 391 2855 752 
Q 3116 1113 3116 1747 
z
" transform="scale(0.015625)"/>
      <path id="DejaVuSans-77" d="M 269 3500 
L 844 3500 
L 1563 769 
L 2278 3500 
L 2956 3500 
L 3675 769 
L 4391 3500 
L 4966 3500 
L 4050 0 
L 3372 0 
L 2619 2869 
L 1863 0 
L 1184 0 
L 269 3500 
z
" transform="scale(0.015625)"/>
      <path id="DejaVuSans-68" d="M 3513 2113 
L 3513 0 
L 2938 0 
L 2938 2094 
Q 2938 2591 2744 2837 
Q 2550 3084 2163 3084 
Q 1697 3084 1428 2787 
Q 1159 2491 1159 1978 
L 1159 0 
L 581 0 
L 581 4863 
L 1159 4863 
L 1159 2956 
Q 1366 3272 1645 3428 
Q 1925 3584 2291 3584 
Q 2894 3584 3203 3211 
Q 3513 2838 3513 2113 
z
" transform="scale(0.015625)"/>
      <path id="DejaVuSans-66" d="M 2375 4863 
L 2375 4384 
L 1825 4384 
Q 1516 4384 1395 4259 
Q 1275 4134 1275 3809 
L 1275 3500 
L 2222 3500 
L 2222 3053 
L 1275 3053 
L 1275 0 
L 697 0 
L 697 3053 
L 147 3053 
L 147 3500 
L 697 3500 
L 697 3744 
Q 697 4328 969 4595 
Q 1241 4863 1831 4863 
L 2375 4863 
z
" transform="scale(0.015625)"/>
      <path id="DejaVuSans-75" d="M 544 1381 
L 544 3500 
L 1119 3500 
L 1119 1403 
Q 1119 906 1312 657 
Q 1506 409 1894 409 
Q 2359 409 2629 706 
Q 2900 1003 2900 1516 
L 2900 3500 
L 3475 3500 
L 3475 0 
L 2900 0 
L 2900 538 
Q 2691 219 2414 64 
Q 2138 -91 1772 -91 
Q 1169 -91 856 284 
Q 544 659 544 1381 
z
M 1991 3584 
L 1991 3584 
z
" transform="scale(0.015625)"/>
     </defs>
     <use xlink:href="#DejaVuSans-4d"/>
     <use xlink:href="#DejaVuSans-6f" transform="translate(86.279297 0)"/>
     <use xlink:href="#DejaVuSans-64" transform="translate(147.460938 0)"/>
     <use xlink:href="#DejaVuSans-65" transform="translate(210.9375 0)"/>
     <use xlink:href="#DejaVuSans-6c" transform="translate(272.460938 0)"/>
     <use xlink:href="#DejaVuSans-20" transform="translate(300.244141 0)"/>
     <use xlink:href="#DejaVuSans-72" transform="translate(332.03125 0)"/>
     <use xlink:href="#DejaVuSans-65" transform="translate(370.894531 0)"/>
     <use xlink:href="#DejaVuSans-73" transform="translate(432.417969 0)"/>
     <use xlink:href="#DejaVuSans-70" transform="translate(484.517578 0)"/>
     <use xlink:href="#DejaVuSans-6f" transform="translate(547.994141 0)"/>
     <use xlink:href="#DejaVuSans-6e" transform="translate(609.175781 0)"/>
     <use xlink:href="#DejaVuSans-73" transform="translate(672.554688 0)"/>
     <use xlink:href="#DejaVuSans-65" transform="translate(724.654297 0)"/>
     <use xlink:href="#DejaVuSans-20" transform="translate(786.177734 0)"/>
     <use xlink:href="#DejaVuSans-77" transform="translate(817.964844 0)"/>
     <use xlink:href="#DejaVuSans-69" transform="translate(899.751953 0)"/>
     <use xlink:href="#DejaVuSans-74" transform="translate(927.535156 0)"/>
     <use xlink:href="#DejaVuSans-68" transform="translate(966.744141 0)"/>
     <use xlink:href="#DejaVuSans-20" transform="translate(1030.123047 0)"/>
     <use xlink:href="#DejaVuSans-64" transform="translate(1061.910156 0)"/>
     <use xlink:href="#DejaVuSans-69" transform="translate(1125.386719 0)"/>
     <use xlink:href="#DejaVuSans-66" transform="translate(1153.169922 0)"/>
     <use xlink:href="#DejaVuSans-66" transform="translate(1188.375 0)"/>
     <use xlink:href="#DejaVuSans-65" transform="translate(1223.580078 0)"/>
     <use xlink:href="#DejaVuSans-72" transform="translate(1285.103516 0)"/>
     <use xlink:href="#DejaVuSans-65" transform="translate(1323.966797 0)"/>
     <use xlink:href="#DejaVuSans-6e" transform="translate(1385.490234 0)"/>
     <use xlink:href="#DejaVuSans-74" transform="translate(1448.869141 0)"/>
     <use xlink:href="#DejaVuSans-20" transform="translate(1488.078125 0)"/>
     <use xlink:href="#DejaVuSans-61" transform="translate(1519.865234 0)"/>
     <use xlink:href="#DejaVuSans-75" transform="translate(1581.144531 0)"/>
     <use xlink:href="#DejaVuSans-74" transform="translate(1644.523438 0)"/>
     <use xlink:href="#DejaVuSans-61" transform="translate(1683.732422 0)"/>
     <use xlink:href="#DejaVuSans-70" transform="translate(1745.011719 0)"/>
     <use xlink:href="#DejaVuSans-73" transform="translate(1808.488281 0)"/>
     <use xlink:href="#DejaVuSans-65" transform="translate(1860.587891 0)"/>
     <use xlink:href="#DejaVuSans-73" transform="translate(1922.111328 0)"/>
    </g>
   </g>
   <g id="legend_1">
    <g id="patch_7">
     <path d="M 478.335312 242.1175 
L 603.854063 242.1175 
Q 605.854063 242.1175 605.854063 240.1175 
L 605.854063 197.083125 
Q 605.854063 195.083125 603.854063 195.083125 
L 478.335312 195.083125 
Q 476.335312 195.083125 476.335312 197.083125 
L 476.335312 240.1175 
Q 476.335312 242.1175 478.335312 242.1175 
z
" style="fill: #ffffff; opacity: 0.8; stroke: #cccccc; stroke-linejoin: miter"/>
    </g>
    <g id="line2d_19">
     <path d="M 480.335312 203.181563 
L 490.335312 203.181563 
L 500.335312 203.181563 
" style="fill: none; stroke: #000000; stroke-width: 1.5; stroke-linecap: square"/>
    </g>
    <g id="text_19">
     <!-- izhikevich model -->
     <g transform="translate(508.335312 206.681563) scale(0.1 -0.1)">
      <defs>
       <path id="DejaVuSans-7a" d="M 353 3500 
L 3084 3500 
L 3084 2975 
L 922 459 
L 3084 459 
L 3084 0 
L 275 0 
L 275 525 
L 2438 3041 
L 353 3041 
L 353 3500 
z
" transform="scale(0.015625)"/>
       <path id="DejaVuSans-6b" d="M 581 4863 
L 1159 4863 
L 1159 1991 
L 2875 3500 
L 3609 3500 
L 1753 1863 
L 3688 0 
L 2938 0 
L 1159 1709 
L 1159 0 
L 581 0 
L 581 4863 
z
" transform="scale(0.015625)"/>
       <path id="DejaVuSans-76" d="M 191 3500 
L 800 3500 
L 1894 563 
L 2988 3500 
L 3597 3500 
L 2284 0 
L 1503 0 
L 191 3500 
z
" transform="scale(0.015625)"/>
       <path id="DejaVuSans-63" d="M 3122 3366 
L 3122 2828 
Q 2878 2963 2633 3030 
Q 2388 3097 2138 3097 
Q 1578 3097 1268 2742 
Q 959 2388 959 1747 
Q 959 1106 1268 751 
Q 1578 397 2138 397 
Q 2388 397 2633 464 
Q 2878 531 3122 666 
L 3122 134 
Q 2881 22 2623 -34 
Q 2366 -91 2075 -91 
Q 1284 -91 818 406 
Q 353 903 353 1747 
Q 353 2603 823 3093 
Q 1294 3584 2113 3584 
Q 2378 3584 2631 3529 
Q 2884 3475 3122 3366 
z
" transform="scale(0.015625)"/>
      </defs>
      <use xlink:href="#DejaVuSans-69"/>
      <use xlink:href="#DejaVuSans-7a" transform="translate(27.783203 0)"/>
      <use xlink:href="#DejaVuSans-68" transform="translate(80.273438 0)"/>
      <use xlink:href="#DejaVuSans-69" transform="translate(143.652344 0)"/>
      <use xlink:href="#DejaVuSans-6b" transform="translate(171.435547 0)"/>
      <use xlink:href="#DejaVuSans-65" transform="translate(225.720703 0)"/>
      <use xlink:href="#DejaVuSans-76" transform="translate(287.244141 0)"/>
      <use xlink:href="#DejaVuSans-69" transform="translate(346.423828 0)"/>
      <use xlink:href="#DejaVuSans-63" transform="translate(374.207031 0)"/>
      <use xlink:href="#DejaVuSans-68" transform="translate(429.1875 0)"/>
      <use xlink:href="#DejaVuSans-20" transform="translate(492.566406 0)"/>
      <use xlink:href="#DejaVuSans-6d" transform="translate(524.353516 0)"/>
      <use xlink:href="#DejaVuSans-6f" transform="translate(621.765625 0)"/>
      <use xlink:href="#DejaVuSans-64" transform="translate(682.947266 0)"/>
      <use xlink:href="#DejaVuSans-65" transform="translate(746.423828 0)"/>
      <use xlink:href="#DejaVuSans-6c" transform="translate(807.947266 0)"/>
     </g>
    </g>
    <g id="line2d_20">
     <path d="M 480.335312 217.859688 
L 490.335312 217.859688 
L 500.335312 217.859688 
" style="fill: none; stroke: #00bfff; stroke-width: 1.5; stroke-linecap: square"/>
    </g>
    <g id="text_20">
     <!-- excitatory autapse -->
     <g transform="translate(508.335312 221.359688) scale(0.1 -0.1)">
      <defs>
       <path id="DejaVuSans-78" d="M 3513 3500 
L 2247 1797 
L 3578 0 
L 2900 0 
L 1881 1375 
L 863 0 
L 184 0 
L 1544 1831 
L 300 3500 
L 978 3500 
L 1906 2253 
L 2834 3500 
L 3513 3500 
z
" transform="scale(0.015625)"/>
       <path id="DejaVuSans-79" d="M 2059 -325 
Q 1816 -950 1584 -1140 
Q 1353 -1331 966 -1331 
L 506 -1331 
L 506 -850 
L 844 -850 
Q 1081 -850 1212 -737 
Q 1344 -625 1503 -206 
L 1606 56 
L 191 3500 
L 800 3500 
L 1894 763 
L 2988 3500 
L 3597 3500 
L 2059 -325 
z
" transform="scale(0.015625)"/>
      </defs>
      <use xlink:href="#DejaVuSans-65"/>
      <use xlink:href="#DejaVuSans-78" transform="translate(59.773438 0)"/>
      <use xlink:href="#DejaVuSans-63" transform="translate(117.203125 0)"/>
      <use xlink:href="#DejaVuSans-69" transform="translate(172.183594 0)"/>
      <use xlink:href="#DejaVuSans-74" transform="translate(199.966797 0)"/>
      <use xlink:href="#DejaVuSans-61" transform="translate(239.175781 0)"/>
      <use xlink:href="#DejaVuSans-74" transform="translate(300.455078 0)"/>
      <use xlink:href="#DejaVuSans-6f" transform="translate(339.664062 0)"/>
      <use xlink:href="#DejaVuSans-72" transform="translate(400.845703 0)"/>
      <use xlink:href="#DejaVuSans-79" transform="translate(441.958984 0)"/>
      <use xlink:href="#DejaVuSans-20" transform="translate(501.138672 0)"/>
      <use xlink:href="#DejaVuSans-61" transform="translate(532.925781 0)"/>
      <use xlink:href="#DejaVuSans-75" transform="translate(594.205078 0)"/>
      <use xlink:href="#DejaVuSans-74" transform="translate(657.583984 0)"/>
      <use xlink:href="#DejaVuSans-61" transform="translate(696.792969 0)"/>
      <use xlink:href="#DejaVuSans-70" transform="translate(758.072266 0)"/>
      <use xlink:href="#DejaVuSans-73" transform="translate(821.548828 0)"/>
      <use xlink:href="#DejaVuSans-65" transform="translate(873.648438 0)"/>
     </g>
    </g>
    <g id="line2d_21">
     <path d="M 480.335312 232.537813 
L 490.335312 232.537813 
L 500.335312 232.537813 
" style="fill: none; stroke: #ba55d3; stroke-width: 1.5; stroke-linecap: square"/>
    </g>
    <g id="text_21">
     <!-- inhibitory autapse -->
     <g transform="translate(508.335312 236.037813) scale(0.1 -0.1)">
      <use xlink:href="#DejaVuSans-69"/>
      <use xlink:href="#DejaVuSans-6e" transform="translate(27.783203 0)"/>
      <use xlink:href="#DejaVuSans-68" transform="translate(91.162109 0)"/>
      <use xlink:href="#DejaVuSans-69" transform="translate(154.541016 0)"/>
      <use xlink:href="#DejaVuSans-62" transform="translate(182.324219 0)"/>
      <use xlink:href="#DejaVuSans-69" transform="translate(245.800781 0)"/>
      <use xlink:href="#DejaVuSans-74" transform="translate(273.583984 0)"/>
      <use xlink:href="#DejaVuSans-6f" transform="translate(312.792969 0)"/>
      <use xlink:href="#DejaVuSans-72" transform="translate(373.974609 0)"/>
      <use xlink:href="#DejaVuSans-79" transform="translate(415.087891 0)"/>
      <use xlink:href="#DejaVuSans-20" transform="translate(474.267578 0)"/>
      <use xlink:href="#DejaVuSans-61" transform="translate(506.054688 0)"/>
      <use xlink:href="#DejaVuSans-75" transform="translate(567.333984 0)"/>
      <use xlink:href="#DejaVuSans-74" transform="translate(630.712891 0)"/>
      <use xlink:href="#DejaVuSans-61" transform="translate(669.921875 0)"/>
      <use xlink:href="#DejaVuSans-70" transform="translate(731.201172 0)"/>
      <use xlink:href="#DejaVuSans-73" transform="translate(794.677734 0)"/>
      <use xlink:href="#DejaVuSans-65" transform="translate(846.777344 0)"/>
     </g>
    </g>
   </g>
  </g>
 </g>
 <defs>
  <clipPath id="p24ea5c69d9">
   <rect x="52.854063" y="25.3575" width="558" height="221.76"/>
  </clipPath>
 </defs>
</svg>
