<?xml version="1.0" encoding="utf-8" standalone="no"?>
<!DOCTYPE svg PUBLIC "-//W3C//DTD SVG 1.1//EN"
  "http://www.w3.org/Graphics/SVG/1.1/DTD/svg11.dtd">
<svg xmlns:xlink="http://www.w3.org/1999/xlink" width="720pt" height="216pt" viewBox="0 0 720 216" xmlns="http://www.w3.org/2000/svg" version="1.1">
 <metadata>
  <rdf:RDF xmlns:dc="http://purl.org/dc/elements/1.1/" xmlns:cc="http://creativecommons.org/ns#" xmlns:rdf="http://www.w3.org/1999/02/22-rdf-syntax-ns#">
   <cc:Work>
    <dc:type rdf:resource="http://purl.org/dc/dcmitype/StillImage"/>
    <dc:date>2026-04-07T12:18:32.484836</dc:date>
    <dc:format>image/svg+xml</dc:format>
    <dc:creator>
     <cc:Agent>
      <dc:title>Matplotlib v3.10.8, https://matplotlib.org/</dc:title>
     </cc:Agent>
    </dc:creator>
   </cc:Work>
  </rdf:RDF>
 </metadata>
 <defs>
  <style type="text/css">*{stroke-linejoin: round; stroke-linecap: butt}</style>
 </defs>
 <g id="figure_1">
  <g id="patch_1">
   <path d="M 0 216 
L 720 216 
L 720 0 
L 0 0 
z
" style="fill: #ffffff"/>
  </g>
  <g id="axes_1">
   <g id="patch_2">
    <path d="M 90 192.24 
L 648 192.24 
L 648 25.92 
L 90 25.92 
z
" style="fill: #ffffff"/>
   </g>
   <g id="matplotlib.axis_1">
    <g id="xtick_1">
     <g id="text_1">
      <!-- 0 -->
      <g style="fill: #262626" transform="translate(112.305121 209.613594) scale(0.11 -0.11)">
       <defs>
        <path id="ArialMT-30" d="M 266 2259 
Q 266 3072 433 3567 
Q 600 4063 929 4331 
Q 1259 4600 1759 4600 
Q 2128 4600 2406 4451 
Q 2684 4303 2865 4023 
Q 3047 3744 3150 3342 
Q 3253 2941 3253 2259 
Q 3253 1453 3087 958 
Q 2922 463 2592 192 
Q 2263 -78 1759 -78 
Q 1097 -78 719 397 
Q 266 969 266 2259 
z
M 844 2259 
Q 844 1131 1108 757 
Q 1372 384 1759 384 
Q 2147 384 2411 759 
Q 2675 1134 2675 2259 
Q 2675 3391 2411 3762 
Q 2147 4134 1753 4134 
Q 1366 4134 1134 3806 
Q 844 3388 844 2259 
z
" transform="scale(0.015625)"/>
       </defs>
       <use xlink:href="#ArialMT-30"/>
      </g>
     </g>
    </g>
    <g id="xtick_2">
     <g id="text_2">
      <!-- 250 -->
      <g style="fill: #262626" transform="translate(169.600351 209.613594) scale(0.11 -0.11)">
       <defs>
        <path id="ArialMT-32" d="M 3222 541 
L 3222 0 
L 194 0 
Q 188 203 259 391 
Q 375 700 629 1000 
Q 884 1300 1366 1694 
Q 2113 2306 2375 2664 
Q 2638 3022 2638 3341 
Q 2638 3675 2398 3904 
Q 2159 4134 1775 4134 
Q 1369 4134 1125 3890 
Q 881 3647 878 3216 
L 300 3275 
Q 359 3922 746 4261 
Q 1134 4600 1788 4600 
Q 2447 4600 2831 4234 
Q 3216 3869 3216 3328 
Q 3216 3053 3103 2787 
Q 2991 2522 2730 2228 
Q 2469 1934 1863 1422 
Q 1356 997 1212 845 
Q 1069 694 975 541 
L 3222 541 
z
" transform="scale(0.015625)"/>
        <path id="ArialMT-35" d="M 266 1200 
L 856 1250 
Q 922 819 1161 601 
Q 1400 384 1738 384 
Q 2144 384 2425 690 
Q 2706 997 2706 1503 
Q 2706 1984 2436 2262 
Q 2166 2541 1728 2541 
Q 1456 2541 1237 2417 
Q 1019 2294 894 2097 
L 366 2166 
L 809 4519 
L 3088 4519 
L 3088 3981 
L 1259 3981 
L 1013 2750 
Q 1425 3038 1878 3038 
Q 2478 3038 2890 2622 
Q 3303 2206 3303 1553 
Q 3303 931 2941 478 
Q 2500 -78 1738 -78 
Q 1113 -78 717 272 
Q 322 622 266 1200 
z
" transform="scale(0.015625)"/>
       </defs>
       <use xlink:href="#ArialMT-32"/>
       <use xlink:href="#ArialMT-35" transform="translate(55.615234 0)"/>
       <use xlink:href="#ArialMT-30" transform="translate(111.230469 0)"/>
      </g>
     </g>
    </g>
    <g id="xtick_3">
     <g id="text_3">
      <!-- 500 -->
      <g style="fill: #262626" transform="translate(233.012613 209.613594) scale(0.11 -0.11)">
       <use xlink:href="#ArialMT-35"/>
       <use xlink:href="#ArialMT-30" transform="translate(55.615234 0)"/>
       <use xlink:href="#ArialMT-30" transform="translate(111.230469 0)"/>
      </g>
     </g>
    </g>
    <g id="xtick_4">
     <g id="text_4">
      <!-- 750 -->
      <g style="fill: #262626" transform="translate(296.424874 209.613594) scale(0.11 -0.11)">
       <defs>
        <path id="ArialMT-37" d="M 303 3981 
L 303 4522 
L 3269 4522 
L 3269 4084 
Q 2831 3619 2401 2847 
Q 1972 2075 1738 1259 
Q 1569 684 1522 0 
L 944 0 
Q 953 541 1156 1306 
Q 1359 2072 1739 2783 
Q 2119 3494 2547 3981 
L 303 3981 
z
" transform="scale(0.015625)"/>
       </defs>
       <use xlink:href="#ArialMT-37"/>
       <use xlink:href="#ArialMT-35" transform="translate(55.615234 0)"/>
       <use xlink:href="#ArialMT-30" transform="translate(111.230469 0)"/>
      </g>
     </g>
    </g>
    <g id="xtick_5">
     <g id="text_5">
      <!-- 1000 -->
      <g style="fill: #262626" transform="translate(356.77862 209.613594) scale(0.11 -0.11)">
       <defs>
        <path id="ArialMT-31" d="M 2384 0 
L 1822 0 
L 1822 3584 
Q 1619 3391 1289 3197 
Q 959 3003 697 2906 
L 697 3450 
Q 1169 3672 1522 3987 
Q 1875 4303 2022 4600 
L 2384 4600 
L 2384 0 
z
" transform="scale(0.015625)"/>
       </defs>
       <use xlink:href="#ArialMT-31"/>
       <use xlink:href="#ArialMT-30" transform="translate(55.615234 0)"/>
       <use xlink:href="#ArialMT-30" transform="translate(111.230469 0)"/>
       <use xlink:href="#ArialMT-30" transform="translate(166.845703 0)"/>
      </g>
     </g>
    </g>
    <g id="xtick_6">
     <g id="text_6">
      <!-- 1250 -->
      <g style="fill: #262626" transform="translate(420.190881 209.613594) scale(0.11 -0.11)">
       <use xlink:href="#ArialMT-31"/>
       <use xlink:href="#ArialMT-32" transform="translate(55.615234 0)"/>
       <use xlink:href="#ArialMT-35" transform="translate(111.230469 0)"/>
       <use xlink:href="#ArialMT-30" transform="translate(166.845703 0)"/>
      </g>
     </g>
    </g>
    <g id="xtick_7">
     <g id="text_7">
      <!-- 1500 -->
      <g style="fill: #262626" transform="translate(483.603143 209.613594) scale(0.11 -0.11)">
       <use xlink:href="#ArialMT-31"/>
       <use xlink:href="#ArialMT-35" transform="translate(55.615234 0)"/>
       <use xlink:href="#ArialMT-30" transform="translate(111.230469 0)"/>
       <use xlink:href="#ArialMT-30" transform="translate(166.845703 0)"/>
      </g>
     </g>
    </g>
    <g id="xtick_8">
     <g id="text_8">
      <!-- 1750 -->
      <g style="fill: #262626" transform="translate(547.015405 209.613594) scale(0.11 -0.11)">
       <use xlink:href="#ArialMT-31"/>
       <use xlink:href="#ArialMT-37" transform="translate(55.615234 0)"/>
       <use xlink:href="#ArialMT-35" transform="translate(111.230469 0)"/>
       <use xlink:href="#ArialMT-30" transform="translate(166.845703 0)"/>
      </g>
     </g>
    </g>
    <g id="xtick_9">
     <g id="text_9">
      <!-- 2000 -->
      <g style="fill: #262626" transform="translate(610.427666 209.613594) scale(0.11 -0.11)">
       <use xlink:href="#ArialMT-32"/>
       <use xlink:href="#ArialMT-30" transform="translate(55.615234 0)"/>
       <use xlink:href="#ArialMT-30" transform="translate(111.230469 0)"/>
       <use xlink:href="#ArialMT-30" transform="translate(166.845703 0)"/>
      </g>
     </g>
    </g>
   </g>
   <g id="matplotlib.axis_2">
    <g id="ytick_1">
     <g id="text_10">
      <!-- −60 -->
      <g style="fill: #262626" transform="translate(61.84125 188.616797) scale(0.11 -0.11)">
       <defs>
        <path id="ArialMT-2212" d="M 3381 1997 
L 356 1997 
L 356 2522 
L 3381 2522 
L 3381 1997 
z
" transform="scale(0.015625)"/>
        <path id="ArialMT-36" d="M 3184 3459 
L 2625 3416 
Q 2550 3747 2413 3897 
Q 2184 4138 1850 4138 
Q 1581 4138 1378 3988 
Q 1113 3794 959 3422 
Q 806 3050 800 2363 
Q 1003 2672 1297 2822 
Q 1591 2972 1913 2972 
Q 2475 2972 2870 2558 
Q 3266 2144 3266 1488 
Q 3266 1056 3080 686 
Q 2894 316 2569 119 
Q 2244 -78 1831 -78 
Q 1128 -78 684 439 
Q 241 956 241 2144 
Q 241 3472 731 4075 
Q 1159 4600 1884 4600 
Q 2425 4600 2770 4297 
Q 3116 3994 3184 3459 
z
M 888 1484 
Q 888 1194 1011 928 
Q 1134 663 1356 523 
Q 1578 384 1822 384 
Q 2178 384 2434 671 
Q 2691 959 2691 1453 
Q 2691 1928 2437 2201 
Q 2184 2475 1800 2475 
Q 1419 2475 1153 2201 
Q 888 1928 888 1484 
z
" transform="scale(0.015625)"/>
       </defs>
       <use xlink:href="#ArialMT-2212"/>
       <use xlink:href="#ArialMT-36" transform="translate(58.398438 0)"/>
       <use xlink:href="#ArialMT-30" transform="translate(114.013672 0)"/>
      </g>
     </g>
    </g>
    <g id="ytick_2">
     <g id="text_11">
      <!-- −40 -->
      <g style="fill: #262626" transform="translate(61.84125 156.674134) scale(0.11 -0.11)">
       <defs>
        <path id="ArialMT-34" d="M 2069 0 
L 2069 1097 
L 81 1097 
L 81 1613 
L 2172 4581 
L 2631 4581 
L 2631 1613 
L 3250 1613 
L 3250 1097 
L 2631 1097 
L 2631 0 
L 2069 0 
z
M 2069 1613 
L 2069 3678 
L 634 1613 
L 2069 1613 
z
" transform="scale(0.015625)"/>
       </defs>
       <use xlink:href="#ArialMT-2212"/>
       <use xlink:href="#ArialMT-34" transform="translate(58.398438 0)"/>
       <use xlink:href="#ArialMT-30" transform="translate(114.013672 0)"/>
      </g>
     </g>
    </g>
    <g id="ytick_3">
     <g id="text_12">
      <!-- −20 -->
      <g style="fill: #262626" transform="translate(61.84125 124.731471) scale(0.11 -0.11)">
       <use xlink:href="#ArialMT-2212"/>
       <use xlink:href="#ArialMT-32" transform="translate(58.398438 0)"/>
       <use xlink:href="#ArialMT-30" transform="translate(114.013672 0)"/>
      </g>
     </g>
    </g>
    <g id="ytick_4">
     <g id="text_13">
      <!-- 0 -->
      <g style="fill: #262626" transform="translate(74.382969 92.788808) scale(0.11 -0.11)">
       <use xlink:href="#ArialMT-30"/>
      </g>
     </g>
    </g>
    <g id="ytick_5">
     <g id="text_14">
      <!-- 20 -->
      <g style="fill: #262626" transform="translate(68.265938 60.846146) scale(0.11 -0.11)">
       <use xlink:href="#ArialMT-32"/>
       <use xlink:href="#ArialMT-30" transform="translate(55.615234 0)"/>
      </g>
     </g>
    </g>
   </g>
   <g id="line2d_1">
    <path d="M 115.363636 184.68 
L 116.073854 181.681871 
L 116.860166 179.295986 
L 117.773302 177.232266 
L 118.838628 175.375789 
L 120.182968 173.495294 
L 122.186796 171.116619 
L 125.357409 167.349354 
L 126.777843 165.284485 
L 127.893899 163.272978 
L 128.832401 161.124304 
L 129.644078 158.706174 
L 130.354295 155.883548 
L 130.988418 152.422427 
L 131.546446 148.101912 
L 132.053744 142.291414 
L 132.484947 134.659229 
L 132.865421 123.720442 
L 133.195164 107.139151 
L 133.474178 80.126563 
L 133.677097 39.451053 
L 133.803922 169.05759 
L 134.843883 172.197642 
L 135.70629 174.130577 
L 136.492602 175.371753 
L 137.228184 176.140325 
L 137.963766 176.598247 
L 138.724714 176.8157 
L 139.58712 176.826271 
L 140.627081 176.60401 
L 141.971421 176.071043 
L 143.823059 175.076735 
L 146.41028 173.417591 
L 149.200419 171.369144 
L 151.432531 169.465 
L 153.182709 167.685119 
L 154.577779 165.957814 
L 155.744565 164.166712 
L 156.759161 162.193563 
L 157.621567 160.025478 
L 158.382515 157.502746 
L 159.067367 154.422777 
L 159.676125 150.58527 
L 160.208788 145.721765 
L 160.665356 139.493541 
L 161.071194 130.866801 
L 161.426303 118.366412 
L 161.730682 99.231652 
L 161.984331 67.877235 
L 162.111156 38.875206 
L 162.23798 169.061587 
L 163.277941 172.238061 
L 164.140348 174.192617 
L 164.92666 175.446431 
L 165.662242 176.2218 
L 166.397824 176.682987 
L 167.158772 176.901369 
L 168.021178 176.91125 
L 169.061139 176.687043 
L 170.405479 176.151259 
L 172.257117 175.154143 
L 174.869703 173.477297 
L 177.685207 171.412282 
L 179.942683 169.490003 
L 181.692862 167.714168 
L 183.113297 165.957986 
L 184.280082 164.166519 
L 185.294678 162.193019 
L 186.157085 160.024555 
L 186.918032 157.501343 
L 187.602885 154.420705 
L 188.211642 150.582204 
L 188.744305 145.717158 
L 189.200874 139.48648 
L 189.606712 130.855427 
L 189.961821 118.346879 
L 190.2662 99.195222 
L 190.519849 67.801558 
L 190.646673 38.750448 
L 190.773498 169.061526 
L 191.813459 172.237442 
L 192.675866 174.191667 
L 193.462178 175.445289 
L 194.19776 176.220554 
L 194.933342 176.681692 
L 195.694289 176.900061 
L 196.556696 176.909953 
L 197.596657 176.685776 
L 198.940997 176.150036 
L 200.792635 175.152964 
L 203.40522 173.476124 
L 206.220725 171.411017 
L 208.478201 169.488547 
L 210.22838 167.71243 
L 211.648814 165.955856 
L 212.8156 164.16386 
L 213.804831 162.245431 
L 214.667238 160.09277 
L 215.428185 157.592295 
L 216.113037 154.545935 
L 216.721795 150.76037 
L 217.254458 145.978901 
L 217.736391 139.460571 
L 218.14223 130.813925 
L 218.497339 118.275785 
L 218.801717 99.062725 
L 219.055366 67.526185 
L 219.182191 38.296096 
L 219.309015 169.061343 
L 220.348977 172.235591 
L 221.211383 174.188829 
L 221.997695 175.441874 
L 222.733278 176.21683 
L 223.46886 176.677821 
L 224.229807 176.896149 
L 225.092214 176.906074 
L 226.132175 176.681989 
L 227.476515 176.146379 
L 229.328153 175.149437 
L 231.915373 173.489993 
L 234.730877 171.42722 
L 236.988354 169.507721 
L 238.738532 167.735565 
L 240.158967 165.984354 
L 241.325753 164.199518 
L 242.340349 162.235315 
L 243.202756 160.079622 
L 243.963703 157.574786 
L 244.648555 154.521857 
L 245.257313 150.726161 
L 245.789976 145.928727 
L 246.271909 139.382867 
L 246.677748 130.689339 
L 247.032856 118.062084 
L 247.337235 98.663639 
L 247.590884 66.693972 
L 247.717709 36.918733 
L 247.844533 169.060791 
L 248.884494 172.230016 
L 249.746901 174.180275 
L 250.533213 175.431581 
L 251.268795 176.205606 
L 252.004377 176.666152 
L 252.765325 176.884357 
L 253.627731 176.894382 
L 254.667692 176.670569 
L 256.012032 176.135352 
L 257.86367 175.138801 
L 260.450891 173.479411 
L 263.266395 171.415815 
L 265.523872 169.494601 
L 267.27405 167.719918 
L 268.694485 165.965188 
L 269.86127 164.175608 
L 270.875867 162.204726 
L 271.738273 160.039842 
L 272.49922 157.521774 
L 273.184073 154.448888 
L 273.792831 150.622369 
L 274.325494 145.77627 
L 274.782062 139.576063 
L 275.1879 130.998798 
L 275.543009 118.59213 
L 275.847388 99.651279 
L 276.101037 68.745918 
L 276.227861 40.303302 
L 276.354686 169.062158 
L 277.394647 172.243835 
L 278.257054 174.201476 
L 279.043366 175.457088 
L 279.778948 176.233418 
L 280.51453 176.695064 
L 281.275477 176.913571 
L 282.137884 176.923346 
L 283.177845 176.698854 
L 284.522185 176.162662 
L 286.373823 175.165137 
L 288.986408 173.488235 
L 291.801913 171.424072 
L 294.059389 169.503568 
L 295.809568 167.730351 
L 297.230002 165.977813 
L 298.396788 164.191259 
L 299.411384 162.224679 
L 300.273791 160.065742 
L 301.034738 157.556254 
L 301.719591 154.496326 
L 302.328348 150.689838 
L 302.861011 145.875389 
L 303.31758 139.725997 
L 303.723418 131.23821 
L 304.078527 119.000386 
L 304.382906 100.406896 
L 304.636555 70.298738 
L 304.788744 35.427599 
L 304.915569 169.060197 
L 305.95553 172.224011 
L 306.817936 174.171059 
L 307.604248 175.420491 
L 308.339831 176.193509 
L 309.075413 176.653574 
L 309.83636 176.871644 
L 310.698767 176.881774 
L 311.738728 176.658253 
L 313.083068 176.123457 
L 314.934706 175.127327 
L 317.521926 173.46799 
L 320.312066 171.423486 
L 322.569542 169.503963 
L 324.319721 167.73135 
L 325.740155 165.979349 
L 326.906941 164.193377 
L 327.921537 162.227534 
L 328.783944 160.06956 
L 329.544891 157.561425 
L 330.229743 154.50351 
L 330.838501 150.70011 
L 331.371164 145.890517 
L 331.853097 139.323657 
L 332.258936 130.59431 
L 332.614044 117.898809 
L 332.918423 98.357913 
L 333.172072 66.053618 
L 333.298897 35.854537 
L 333.425721 169.060371 
L 334.465682 172.225771 
L 335.328089 174.173759 
L 336.114401 175.423741 
L 336.849983 176.197055 
L 337.585566 176.657261 
L 338.346513 176.87537 
L 339.20892 176.88547 
L 340.248881 176.661864 
L 341.593221 176.126944 
L 343.444859 175.130692 
L 346.032079 173.471339 
L 348.847583 171.407113 
L 351.079695 169.508112 
L 352.829873 167.736297 
L 354.250308 165.985407 
L 355.417094 164.200931 
L 356.43169 162.237195 
L 357.294097 160.08212 
L 358.055044 157.578155 
L 358.739896 154.526526 
L 359.348654 150.732824 
L 359.881317 145.938526 
L 360.36325 139.398068 
L 360.769088 130.713742 
L 361.124197 118.10399 
L 361.428576 98.742006 
L 361.682225 66.857732 
L 361.80905 37.190277 
L 361.935874 169.060902 
L 362.975835 172.231139 
L 363.838242 174.181997 
L 364.624554 175.433653 
L 365.360136 176.207866 
L 366.095718 176.668501 
L 366.856666 176.886731 
L 367.719072 176.896736 
L 368.759033 176.672868 
L 370.103373 176.137572 
L 371.955011 175.140944 
L 374.542232 173.481542 
L 377.357736 171.418113 
L 379.615213 169.497245 
L 381.365391 167.723072 
L 382.785826 165.969052 
L 383.952611 164.180429 
L 384.967207 162.210896 
L 385.829614 160.047869 
L 386.590561 157.532476 
L 387.275414 154.463627 
L 387.884171 150.643349 
L 388.416834 145.807115 
L 388.873403 139.622757 
L 389.279241 131.073431 
L 389.63435 118.719568 
L 389.938729 99.887622 
L 390.192378 69.233192 
L 390.344567 33.48 
L 390.471392 169.059436 
L 391.511353 172.216316 
L 392.37376 174.159248 
L 393.160072 175.406276 
L 393.895654 176.178001 
L 394.631236 176.637446 
L 395.392183 176.85534 
L 396.25459 176.865603 
L 397.294551 176.642453 
L 398.638891 176.108194 
L 400.490529 175.1126 
L 403.077749 173.453326 
L 405.867889 171.407686 
L 408.1 169.509303 
L 409.850179 167.737985 
L 411.270614 165.987631 
L 412.437399 164.203807 
L 413.451995 162.240947 
L 414.314402 160.08705 
L 415.075349 157.584762 
L 415.760202 154.535647 
L 416.368959 150.745813 
L 416.901622 145.957602 
L 417.383556 139.427635 
L 417.789394 130.761171 
L 418.144503 118.185377 
L 418.448882 98.894062 
L 418.702531 67.175002 
L 418.829355 37.715659 
L 418.95618 169.061115 
L 419.996141 172.23329 
L 420.858547 174.185298 
L 421.64486 175.437626 
L 422.380442 176.212198 
L 423.116024 176.673005 
L 423.876971 176.891283 
L 424.739378 176.90125 
L 425.779339 176.677276 
L 427.123679 176.141829 
L 428.975317 175.145049 
L 431.562537 173.485628 
L 434.378042 171.422516 
L 436.635518 169.50231 
L 438.385697 167.729113 
L 439.806131 165.976452 
L 440.972917 164.189662 
L 441.987513 162.222709 
L 442.84992 160.063233 
L 443.610867 157.552952 
L 444.295719 154.491816 
L 444.904477 150.683452 
L 445.43714 145.866036 
L 445.893708 139.711878 
L 446.299547 131.215706 
L 446.654655 118.96209 
L 446.959034 100.336214 
L 447.212683 70.154114 
L 447.364873 35.164119 
L 447.491697 169.060096 
L 448.531658 172.222987 
L 449.394065 174.169488 
L 450.180377 175.418601 
L 450.915959 176.191447 
L 451.651542 176.651429 
L 452.412489 176.869476 
L 453.274896 176.879625 
L 454.314857 176.656153 
L 455.659197 176.121429 
L 457.510835 175.12537 
L 460.098055 173.466042 
L 462.888194 171.421387 
L 465.145671 169.501549 
L 466.895849 167.728472 
L 468.316284 165.975824 
L 469.48307 164.188979 
L 470.497666 162.221908 
L 471.360073 160.062245 
L 472.12102 157.551678 
L 472.805872 154.490097 
L 473.41463 150.681037 
L 473.947293 145.862511 
L 474.403861 139.706568 
L 474.8097 131.207253 
L 475.164808 118.947711 
L 475.469187 100.309671 
L 475.722836 70.099779 
L 475.875026 35.065063 
L 476.00185 169.06006 
L 477.041811 172.22262 
L 477.904218 174.168924 
L 478.69053 175.417922 
L 479.426112 176.190707 
L 480.161694 176.65066 
L 480.922642 176.868698 
L 481.785048 176.878853 
L 482.825009 176.655399 
L 484.169349 176.120701 
L 486.020987 175.124668 
L 488.608208 173.465342 
L 491.398347 171.420634 
L 493.655824 169.500683 
L 495.406002 167.727438 
L 496.826437 165.974558 
L 497.993222 164.1874 
L 499.007819 162.219888 
L 499.870225 160.059618 
L 500.631172 157.548178 
L 501.316025 154.485279 
L 501.924783 150.674184 
L 502.457446 145.852446 
L 502.914014 139.691351 
L 503.319852 131.182972 
L 503.674961 118.906355 
L 503.97934 100.233271 
L 504.232989 69.943246 
L 504.385178 34.779469 
L 504.512003 169.059947 
L 505.551964 172.221484 
L 506.414371 174.167181 
L 507.200683 175.415825 
L 507.936265 176.188419 
L 508.671847 176.64828 
L 509.432794 176.866293 
L 510.295201 176.876467 
L 511.335162 176.653068 
L 512.679502 176.118449 
L 514.53114 175.122495 
L 517.11836 173.463179 
L 519.9085 171.418304 
L 522.165976 169.498002 
L 523.916155 167.724241 
L 525.33659 165.970641 
L 526.503375 164.182513 
L 527.517971 162.213637 
L 528.380378 160.051488 
L 529.141325 157.537341 
L 529.826178 154.470361 
L 530.434935 150.65296 
L 530.967598 145.821264 
L 531.424167 139.644186 
L 531.830005 131.107677 
L 532.185114 118.778009 
L 532.489493 99.995874 
L 532.743142 69.455907 
L 532.895331 33.888295 
L 533.022156 169.059598 
L 534.062117 172.217954 
L 534.924523 174.161763 
L 535.710836 175.409302 
L 536.446418 176.181303 
L 537.182 176.64088 
L 537.942947 176.858812 
L 538.805354 176.869047 
L 539.845315 176.645818 
L 541.189655 176.111445 
L 543.041293 175.115737 
L 545.628513 173.45645 
L 548.418653 171.411053 
L 550.650764 169.51317 
L 552.400943 167.742595 
L 553.821377 165.993275 
L 554.988163 164.210843 
L 556.002759 162.249942 
L 556.865166 160.098739 
L 557.626113 157.600326 
L 558.310966 154.557045 
L 558.919723 150.776205 
L 559.452386 146.002159 
L 559.934319 139.496606 
L 560.340158 130.871675 
L 560.695267 118.374728 
L 560.999645 99.247113 
L 561.253294 67.909302 
L 561.380119 38.928038 
L 561.506944 169.061603 
L 562.546905 172.238221 
L 563.409311 174.192863 
L 564.195623 175.446727 
L 564.931206 176.222122 
L 565.666788 176.683322 
L 566.427735 176.901708 
L 567.290142 176.911586 
L 568.330103 176.687371 
L 569.674443 176.151576 
L 571.526081 175.154449 
L 574.138666 173.477601 
L 576.95417 171.41261 
L 579.211647 169.49038 
L 580.961825 167.714617 
L 582.38226 165.958537 
L 583.549046 164.167207 
L 584.563642 162.193899 
L 585.426049 160.0257 
L 586.186996 157.502872 
L 586.871848 154.422811 
L 587.480606 150.585205 
L 588.013269 145.721574 
L 588.469837 139.493175 
L 588.875676 130.866148 
L 589.230784 118.365237 
L 589.535163 99.229414 
L 589.788812 67.872547 
L 589.915637 38.867461 
L 590.042461 169.061573 
L 591.082422 172.237919 
L 591.944829 174.1924 
L 592.731141 175.44617 
L 593.466723 176.221515 
L 594.202306 176.682691 
L 594.963253 176.90107 
L 595.825659 176.910953 
L 596.865621 176.686753 
L 598.20996 176.15098 
L 600.061599 175.153874 
L 602.674184 173.477029 
L 605.489688 171.411993 
L 607.747165 169.48967 
L 609.497343 167.71377 
L 610.917778 165.957499 
L 612.084563 164.165911 
L 613.09916 162.19224 
L 613.961566 160.023541 
L 614.722513 157.499991 
L 615.407366 154.418841 
L 616.016124 150.579549 
L 616.548787 145.71325 
L 617.005355 139.480556 
L 617.411193 130.845939 
L 617.766302 118.330631 
L 618.070681 99.164953 
L 618.32433 67.73869 
L 618.451154 38.646779 
L 618.577979 169.061484 
L 619.61794 172.237019 
L 620.480347 174.191019 
L 621.266659 175.444509 
L 622.002241 176.219703 
L 622.636364 176.633315 
L 622.636364 176.633315 
" clip-path="url(#p8e748fba54)" style="fill: none; stroke: #4c72b0; stroke-width: 1.5; stroke-linecap: round"/>
   </g>
   <g id="patch_3">
    <path d="M 90 192.24 
L 90 25.92 
" style="fill: none; stroke: #262626; stroke-width: 1.25; stroke-linejoin: miter; stroke-linecap: square"/>
   </g>
   <g id="patch_4">
    <path d="M 648 192.24 
L 648 25.92 
" style="fill: none; stroke: #262626; stroke-width: 1.25; stroke-linejoin: miter; stroke-linecap: square"/>
   </g>
   <g id="patch_5">
    <path d="M 90 192.24 
L 648 192.24 
" style="fill: none; stroke: #262626; stroke-width: 1.25; stroke-linejoin: miter; stroke-linecap: square"/>
   </g>
   <g id="patch_6">
    <path d="M 90 25.92 
L 648 25.92 
" style="fill: none; stroke: #262626; stroke-width: 1.25; stroke-linejoin: miter; stroke-linecap: square"/>
   </g>
  </g>
 </g>
 <defs>
  <clipPath id="p8e748fba54">
   <rect x="90" y="25.92" width="558" height="166.32"/>
  </clipPath>
 </defs>
</svg>
